<svg width="718" height="437" viewBox="0 0 718 437" fill="none" xmlns="http://www.w3.org/2000/svg">
<path fill-rule="evenodd" clip-rule="evenodd" d="M33.6678 162.217C48.6568 118.261 90.8806 81.8918 156.803 63.4146C218.294 46.1792 296.077 50.8859 369.604 68.0576C436.918 83.7784 489.957 115.966 534.613 151.65C580.99 188.711 624.41 229.151 622.65 270.268C620.77 314.2 583.664 351.471 525.161 372.5C466.032 393.753 388.867 392.018 312.024 381.922C225.499 370.554 128.585 357.808 71.7193 312.924C13.8303 267.233 17.2122 210.473 33.6678 162.217Z" fill="#6FC8D1" fill-opacity="0.3"/>
<path fill-rule="evenodd" clip-rule="evenodd" d="M42.312 280.846C40.4223 237.343 69.1399 189.577 128.885 147.758C184.615 108.749 265.429 82.073 346.772 67.7358C421.242 54.61 487.628 61.1988 546.861 74.0872C608.378 87.4725 668.208 104.915 682.426 140.769C697.617 179.078 674.447 225.594 623.228 266.667C571.462 308.179 492.432 337.153 410.476 358.85C318.194 383.28 214.825 410.633 139.612 394.697C63.0462 378.475 44.3867 328.605 42.312 280.846Z" fill="#FFE09C" fill-opacity="0.3"/>
<g clip-path="url(#clip0)">
<path d="M101.201 116.324L109.113 113.266L107.101 108.399L101.563 106.28L100.262 107.527L97.7276 106.95L95.1931 111.201L92.0283 115.09L95.9574 118.241L101.201 116.324Z" fill="#6DBCC1"/>
<path d="M104.822 116.378L104.769 118.711L111.339 119.435L105.654 121.406L116.583 125.188L130.77 124.303L129.577 120.736L132.527 120.012L127.552 115.399L123.623 111.456L122.845 115.184L119.372 112.234L117.615 113.682L116.422 111.818L108.966 116.27L104.822 116.378Z" fill="#6DBCC1"/>
<path d="M235.18 297.908L231.868 295.213L228.395 295.012L225.86 294.127L221.193 292.826L211.511 293.657L212.705 290.291L205.504 293.604L201.052 276.774L196.224 278.128L194.937 275.996L187.575 267.092L171.107 264.92L164.952 264.035L163.651 265.952L159.092 269.841L156.973 270.297L156.034 272.992L145.011 270.042L142.571 266.931L143.818 257.826L135.946 256.941L134.605 244.094L128.598 249.579L117.4 246.173L117.561 233.688L121.45 229.692L125.433 225.87L127.605 227.466L129.885 225.293L134.498 228.404L140.09 225.146L147.492 228.19L152.937 238.301L152.83 219.916L162.981 212.916L162.002 208.772L165.1 206.801L167.125 202.402L175.05 199.037L183.592 189.355L188.715 186.874L183.753 193.284L191.262 190.079L193.904 188.215L187.172 184.594L184.008 180.598L178.979 182.73L185.818 177.446H196.586L199.966 175.422L204.833 174.751L204.672 168.274L197.78 169.253L202.192 166.102L197.525 164.546L195.715 160.966L196.747 158.954L195.192 155.427L193.22 154.596L191.879 151.498L183.029 156.004L183.9 149.473L180.588 147.918L173.655 144.86L170.182 143.412L165.73 155.012L166.655 163.607L163.343 166.102L162.203 175.006H157.134L156.557 165.015L153.299 165.686L147.492 161.851L139.983 159.571L136.51 154.502L146.352 142.849L152.83 136.425L149.879 134.199L154.13 135.286L156.611 132.537L165.006 128.862L160.755 123.163L155.833 130.619L153.5 124.879L151.489 126.998L148.847 123.163L143.764 119.073L141.176 121.406L144.435 126.837L137.341 127.307L128.383 129.171L120.203 131.196L115.845 128.5L110.307 128.916L110.883 126.743L101.925 125.027L93.477 124.048L89.8563 123.163L87.2682 120.682L80.3218 123.78L83.1782 121.554L78.0421 123.324L74.8908 127.159L60.7969 122.492L52.818 122.278L49.7605 121.299L45.1073 121.661L43.9674 119.489L38.5766 120.628L37.9061 118.657L33.092 119.797L29.9272 121.661L25.1667 121.916L22.3238 125.912L15.954 126.945L24.9655 133.422L14.2912 134.347L10.6169 134.615L12.0115 137.351L21.023 138.289L19.5211 142.017L16.4636 142.071L15.3774 143.72L10.5096 146L8.33716 147.086L10.1475 149.473L13.567 151.284L15.9004 156.098L3 166.826V168.113L27.8084 157.399L31.228 151.914L37.0211 149.111L32.5153 154.556L32.2069 155.32L40.749 149.165L45.0536 150.774L51.6245 152.008L62.7146 157.6L62.8755 160.563L67.2739 163.661L70.4253 170.192L73.751 177.594L77.841 184.742L74.569 185.881L70.4253 199.09L69.6073 204.012L73.1743 208.772L72.5038 211.575L74.4751 212.353L75.2529 215.035L78.8199 208.517L78.2969 215.249L86.2222 217.274L81.9847 218.36L82.1858 225.655L85.9138 233.326L89.91 239.588L94.0536 241.975L84.7203 223.483L85.0824 222.544L89.5479 225.816L95.5555 236.477L100.155 241.667L100.933 248.345L115.228 256.056L125.849 258.644L137.609 266.569L141.847 270.659L143.349 273.153L150.657 272.268L155.163 283.922L147.546 293.402L149.517 296.554L147.023 301.743L149.517 302.521L157.805 320.021L170.692 333.74L169.713 340.471L170.651 344.521L169.874 349.537L168.734 352.286L167.902 356.228L167.125 370.416L167.433 378.019L169.967 379.628L168.881 384.349L168.264 392.676L169.042 394.916L175.305 408.996L178.469 412L180.481 401.742L183.029 397.92L184.946 393.87L181.728 392.314L186.904 381.908L187.374 378.958L190.485 379.119L190.377 374.09L200.22 370.148L199.389 365.28L197.216 364.717L205.236 362.853L208.977 354.512L209.285 357.046L211.659 351.669L214.569 349.952L221.086 338.969L229.32 336.596L230.205 332.291L231.291 327.276L232.377 317.125L241.027 304.895L239.324 303.286L235.18 297.908Z" fill="#6DBCC1"/>
<path d="M161.479 94.2644L155.834 82.866L152.213 89.3966L154.586 90.1744L161.479 94.2644Z" fill="#6DBCC1"/>
<path d="M198.088 184.54L202.755 183.856L204.055 186.404L206.013 185.627L208.816 186.968L208.507 180.598L205.504 179.351L204.055 176.454L200.689 178.479L198.088 184.54Z" fill="#6DBCC1"/>
<path d="M332.443 91.8373L333.221 96.7051L337.364 99.1859L341.508 93.956L342.125 96.7453L342.648 92.0384L335.393 87.1169L333.891 89.7051L331.611 88.7798L329.13 89.5978L327.83 87.6399L325.711 88.7261L326.381 93.071L332.443 91.8373Z" fill="#6DBCC1"/>
<path d="M186.81 132.483L187.065 130.056L196.64 136.734L199.805 131.088L190.324 124.41L183.592 117.102L178 111.402L169.15 114.768L167.125 108.613L162.458 114.004L161.318 109.337L154.854 116.793L158.006 118.657L157.081 120.776L166.508 121.607L174.688 122.492L175.197 125.966L180.588 126.784L185.671 126.529L182.613 129.693L175.412 134.977L171.992 139.939L180.843 141.347L189.238 145.946L186.81 140.877L192.349 143.103L192.764 137.203L188.205 134.253L184.169 134.454V133.261L186.81 132.483Z" fill="#6DBCC1"/>
<path d="M298.878 165.109L302.606 167.657L299.494 168.797L298.824 172.78L301.318 173.088L297.684 177.755L302.659 175.985L309.445 174.952L308.975 173.195L310.893 170.031L308.305 169.105L305.301 160.966L302.713 159.785L304.161 157.398L300.433 154.864L296.759 157.814L296.812 161.743L298.878 165.109Z" fill="#6DBCC1"/>
<path d="M158.676 97.8448L176.699 100.487L176.337 96.1283L182.559 93.1245L187.628 88.5651L198.047 85.4674L197.685 81.2701L206.228 80.2241L203.224 76.7643L194.051 76.3486L187.118 78.8295L184.946 76.818L179.703 77.6896L175.465 80.023L166.708 80.908L163.034 81.2701L169.819 86.5938L179.501 84.113L179.555 85.977L172.354 87.7873L174.057 89.6513L167.379 88.3103L168.934 92.9233L162.364 98.0996L158.676 97.8448Z" fill="#6DBCC1"/>
<path d="M577.362 207.525L573.004 210.582L565.602 213.948L569.075 216.027L570.992 214.364L573.165 215.504L573.58 212.969L581.761 206.023L582.176 201.786L581.09 198.004L577.362 207.525Z" fill="#6DBCC1"/>
<path d="M589.632 306.919L599.314 304.787L606.676 309.762L608.433 307.228L605.536 306.195L603.619 301.328L598.429 297.331L597.92 294.797L586.012 291.485L580.929 293.764L575.753 296.192L585.328 302.467L582.9 305.257L589.632 306.919Z" fill="#6DBCC1"/>
<path d="M543.328 290.036L543.958 288.119L546.184 285.893L543.998 280.717L547.418 276.412L540.579 273.877L534.061 281.95L530.535 283.814L525.56 284.9L528.309 292.879L535.818 294.904L543.328 290.036Z" fill="#6DBCC1"/>
<path d="M603.713 330.843L599.623 329.14L597.088 319.042L593.561 310.178L588.801 324.42L578.649 319.498L581.707 313.289L576.008 312.565L570.362 311.063L572.132 313.96L566.943 315.877L563.684 319.713L555.557 320.853L553.64 323.91L551.199 323.28L543.073 330.897L532.398 335.456L533.23 343.328L530.749 342.443L533.029 349.282L533.337 353.372L532.761 358.655L537.481 364.14L541.41 362.128L555.343 357.877L565.494 356.63L571.14 362.906L576.839 358.87L575.538 363.63L577.362 361.968L586.052 371.556L600.253 365.964L609.626 354.31V349.228L607.762 337.374L603.713 330.843Z" fill="#6DBCC1"/>
<path d="M647.993 131.088L637.841 131.249L631.941 126.328L631.793 126.059H627.851L618.585 121.554L606.569 119.596L605.939 122.385L591.389 122.801L579.012 117.37L568.659 115.6L559.232 114.366L555.759 112.65L549.081 112.904L550.113 115.908L543.18 115.707L537.535 114.567L527.437 114.312L529.449 112.341L524.473 109.029L519.512 112.086L506.719 108.868L494.757 115.09L493.255 116.069L490.198 110.732L500.403 102.029L490.506 98.4082L486.926 99.1859L481.079 95.6055L478.236 101.358L470.257 101.774L464.142 102.753L453.79 105.194L456.324 108.868L446.119 111.456L451.563 118.657L442.498 113.95L442.391 118.094L435.914 111.671L436.853 119.381L437.215 122.855L443.893 124.102L447.058 128.755L439.857 125.027L431.569 131.705L436.129 125.966L434.573 122.385L430.791 109.86L425.669 115.506L423.027 117.102L427.68 126.22L413.546 121.151L412.46 126.059L410.744 123.941L406.868 125.335L402.926 126.582L402.724 126.328L389.462 130.002L384.286 125.496L386.606 133.113L380.812 133.261L378.332 134.038L380.035 136.425L377.755 138.397L374.496 135.54L375.006 139.845L368.636 131.289L379.311 128.554L366.41 122.238L361.904 119.542L351.807 117.933V120.32L345.129 119.851L346.376 122.6L343.881 125.389L336.063 127.307L331.558 134.561L328.299 137.766L325.496 139.939L316.485 149.165L318.255 150.251L319.542 156.004L329.171 155.374L336.224 161.18L341.401 154.234L339.067 151.498L341.602 150.814L340.153 142.178L343.68 141.038L346.523 138.853L350.68 137.176L351.244 136.68L353.979 135.849L350.68 137.176L345.96 141.441L352.947 150.412L357.761 149.219L358.807 152.008L352.799 156.983L348.655 155.789L346.577 161.958L335.862 166.303L329.13 167.241L324.826 156.259L322.399 159.933L322.345 162.937L324.571 167.657L316.176 170.809L314.312 173.866L309.646 177.178L304.362 177.701L304.416 179.874L299.454 181.537L304.268 193.337L290.751 196.609L290.537 201.786L289.812 206.238L290.443 208.263L296.544 210.529L300.017 209.657L304.778 209.55L307.688 205.876L309.699 200.284L314.675 193.284L320.427 194.383L326.945 191.943L334.776 199.09L338.45 202.872L339.121 206.023L340.516 201.786L344.096 202.094L333.891 193.753L334.615 188.268L337.002 192.144L344.713 197.333L350.251 205.044L348.602 206.077L350.104 208.155L354.609 205.621L351.914 202.872L354.757 199.653L359.893 199.707L361.958 189.663L365.994 184.902L368.18 184.594L369.106 186.605L370.661 187.853L368.073 191.058L375.998 189.408L372.726 187.853L381.335 184.178L377.5 189.046L382.985 193.391L387.182 198.835L371.908 196.81L361.073 199.868L363.152 209.443L368.18 208.933L371.64 210.274L376.669 210.127L373.249 221.726L364.707 223.174L357.761 221.512L353.885 219.178L348.91 217.422L341.602 221.874L338.29 220.948L337.458 219.138L328.809 216.496L329.171 209.496L311.309 209.764L305.408 211.722L303.075 213.64L296.544 212.031L294.426 216.697L288.941 223.791L286.299 227.157L281.834 229.383L278.065 234.197L276.201 239.642L273.962 256.726L275.987 259.784L281.431 270.927L283.242 273.569L293.701 280.864L306.642 277.753L316.539 275.071L318.657 279.255L327.468 282.366L324.933 290.868L326.274 293.604L332.134 300.335L334.307 310.487L331.504 320.128L336.841 346.479L343.519 357.1L345.129 362.692L350.975 361.498L356.058 361.82L359.987 360.318L365.994 355.906L371.908 348.973L373.357 342.858L377.594 334.625L380.812 328.255L383.816 324.634L388.215 321.939L387.075 304.063L385.841 301.743L398.728 284.498L410.69 266.153L408.155 263.471L391.272 263.78L389.153 257.303L386.203 256.471L382.1 248.291L380.598 243.732L377.339 240.42L374.912 232.749L370.822 225.146L377.554 229.906L383.709 240.943L388.939 248.855L392.358 258.228L398.943 259.328L402.456 258.443L410.596 256.833L415.517 253.468L418.36 250.933L422.29 249.123L425.615 240.835L425.293 240.674L423.175 237.832L419.97 237.563L418.106 233.795L408.41 236.061L408.464 233.017L400.498 224.676L408.772 229.598L418.722 230.376L427.734 234.559L429.853 233.634L434.573 235.136L437.684 234.519L444.51 240.058L450.263 241.707L454.661 256.941L460.669 271.236L465.228 268.741L465.698 263.78L466.623 260.414L465.805 256.525L470.404 254.044L477.968 247.46L484.552 241.975L488.226 238.301L492.477 245.904L495.575 254.5L500.188 252.274L501.529 256.27L502.629 260.722L506.973 268.902L508.784 279.63L512.512 272.268L509.977 270.713L508.891 267.24V261.5L512.82 265.697L515.824 265.429L517.232 270.766L521.832 253.159L521.054 244.764L523.334 242.337L524.527 245.033L528.778 242.284L539.399 238.556L543.542 235.297L545.192 231.194L546.385 223.322L545.46 218.615L544.937 206.023L536.851 206.291L536.033 203.65L541.933 199.653L542.456 203.65L549.912 201.678L548.772 205.259L556.59 215.196L557.677 206.291L553.788 202.456L557.837 195.724L571.972 182.931L572.226 177.54L567.104 166.41L564.878 168.113L560.841 165.324L560.157 163.768L565.749 155.843L577.309 152.893L585.381 151.498L586.052 153.617L591.188 152.276L592.998 145.491L601.795 147.717L604.652 144.552L597.088 162.575L601.339 172.002L607.24 165.324L607.602 165.109L609.305 164.13L610.083 159.37L606.261 155.789L616.814 148.494L622.205 145.182L627.127 143.68L632.155 144.243L626.765 137.619L629.608 135.648L629.822 131.504L632.933 134.923L637.332 135.393L641.06 136.68L644.788 136.533L644.224 134.454L647.993 131.088Z" fill="#6DBCC1"/>
<path d="M404.789 313.289L399.868 322.046L398.165 320.852L394.745 328.094L393.498 333.9L393.659 337.427L393.806 341.611L396.864 342.912L404.011 330.95L406.09 326.23L408.008 316.441L406.398 313.236L404.789 313.289Z" fill="#6DBCC1"/>
<path d="M282.102 137.874L282.303 132.389L276.04 132.899L271.28 132.335L269.416 133.113L267.444 131.504L264.95 136.372L268.638 135.849L267.552 139.992L273.398 140.515L276.872 139.899L282.102 137.874Z" fill="#6DBCC1"/>
<path d="M263.086 119.328L266.452 117.209L269.818 114.151L266.05 110.531L270.033 111.148L273.707 109.699L273.291 107.581L277.904 104L277.65 98.4617L277.743 95.8736L271.696 95.4043L277.489 88.4713L274.176 87.1169L288.056 81.3238L268.638 85.1993L271.843 80.2778L264.91 82.3027L265.004 79.138L253.874 80.2778L271.173 76.9119L253.458 75.933L254.397 74.9541L260.083 74.7932L260.351 73.546L257.494 71.9905L243.776 75.7184L235.636 75.5709L234.188 80.8545L230.098 78.6284L227.402 82.1418L224.613 82.2491L224.251 79.2989L221.448 78.7223L220.577 80.7472L210.519 80.6935L207.368 84.0594L201.669 85.1993L201.092 89.3966L188.406 95.6591L197.002 97.8851L191.316 98.4617L208.763 102.136L214.247 116.847L217.828 115.962L218.351 118.966L215.347 119.851L219.745 124.102L220 145.182L225.538 149.058L231.09 148.749L235.073 140.515L236.266 135.232L246.418 133.422L251.393 127.105L262.268 126.167L268.584 119.851L263.086 119.328Z" fill="#6DBCC1"/>
<path d="M519.82 291.123L516.294 292.517L507.644 281.897L501.744 278.128L498.378 279.63L507.644 289.822L516.401 300.335L520.491 299.249L519.968 294.234L522.409 293.402L519.82 291.123Z" fill="#6DBCC1"/>
<path fill-rule="evenodd" clip-rule="evenodd" d="M472.121 362.437C456.069 325.358 444.309 298.27 428.257 261.232C417.381 236.115 387.813 231.864 363.567 225.293C307.795 247.514 339.537 248.13 286.353 225.293C262.121 231.864 232.539 236.115 221.663 261.232C205.611 298.257 193.851 325.345 177.799 362.437C171.228 374.868 171.376 392.837 187.535 392.368C279.152 392.368 370.768 392.368 462.385 392.368C478.544 392.837 478.692 374.868 472.121 362.437ZM251.903 357.462C219.638 357.462 231.493 354.713 251.742 315.971C253.297 327.638 250.347 345.809 251.903 357.462ZM398.004 357.462C399.56 345.809 396.609 327.625 398.165 315.971C418.414 354.726 430.268 357.462 398.004 357.462Z" fill="#40494C"/>
<path d="M232.23 350.891C206.027 352.648 197.793 366.326 197.793 366.326C219.705 353.479 236.642 356.697 236.642 356.697C232.377 355.853 231.237 354.203 232.23 350.891Z" fill="#323B3F"/>
<path d="M417.689 350.891C418.668 354.203 417.529 355.866 413.291 356.697C413.291 356.697 430.228 353.492 452.14 366.326C452.126 366.326 443.893 352.648 417.689 350.891Z" fill="#323B3F"/>
<path fill-rule="evenodd" clip-rule="evenodd" d="M262.054 231.717C270.18 229.276 278.521 227.412 286.339 225.293C339.523 248.13 307.782 247.514 363.554 225.293C371.372 227.412 379.713 229.276 387.839 231.717L336.466 297.855H324.973H313.427L262.054 231.717Z" fill="#323B3F"/>
<path fill-rule="evenodd" clip-rule="evenodd" d="M324.987 119.435C355.334 119.435 380.196 144.351 380.196 174.697V206.237C380.196 236.638 355.334 261.5 324.987 261.5C294.587 261.5 269.725 236.638 269.725 206.237V174.697C269.725 144.351 294.587 119.435 324.987 119.435Z" fill="#40494C"/>
<path fill-rule="evenodd" clip-rule="evenodd" d="M249.112 379.374H400.806C405.419 379.374 409.147 375.646 409.147 371.033V288.266C409.147 283.653 405.419 279.925 400.806 279.925H249.112C244.499 279.925 240.771 283.653 240.771 288.266V371.033C240.771 375.646 244.499 379.374 249.112 379.374Z" fill="#B7CAD6"/>
<path fill-rule="evenodd" clip-rule="evenodd" d="M233.571 382.632H416.335C417.221 382.632 417.945 383.356 417.945 384.295V390.719C417.945 391.657 417.221 392.381 416.335 392.381H233.571C232.686 392.381 231.962 391.657 231.962 390.719V384.295C231.962 383.356 232.686 382.632 233.571 382.632Z" fill="#B7CAD6"/>
<path d="M293.286 379.374H256.878V382.632H293.286V379.374Z" fill="#93A3AC"/>
<path d="M393.029 379.374H356.621V382.632H393.029V379.374Z" fill="#93A3AC"/>
<path fill-rule="evenodd" clip-rule="evenodd" d="M324.986 153.872C346.63 153.872 364.344 171.586 364.344 193.23V214.927C364.344 236.571 346.63 254.285 324.986 254.285C303.289 254.285 285.574 236.571 285.574 214.927V193.243C285.574 171.586 303.275 153.872 324.986 153.872Z" fill="#323B3F"/>
<path fill-rule="evenodd" clip-rule="evenodd" d="M324.987 299.665C341.508 299.665 354.918 313.075 354.918 329.649C354.918 346.171 341.508 359.58 324.987 359.58C308.412 359.58 295.002 346.171 295.002 329.649C294.989 313.075 308.412 299.665 324.987 299.665Z" fill="#93A3AC"/>
<path d="M313.28 317.487C312.556 315.623 315.037 313.544 314.165 312.096C313.226 310.647 310.638 310.031 309.458 311.264C308.265 312.565 310.759 315.609 309.404 317.017C308.063 318.358 304.952 315.824 303.705 317.017C302.404 318.264 303.088 320.852 304.537 321.724C305.985 322.609 308.01 320.115 309.927 320.839C311.845 321.563 314.071 324.728 315.68 326.324C316.351 325.908 316.15 324.875 316.82 324.406C316.874 324.406 316.874 324.406 316.874 324.406C316.874 324.406 316.874 324.406 316.874 324.352C317.29 323.736 318.376 323.937 318.738 323.213C317.155 321.684 314.004 319.404 313.28 317.487Z" fill="#EBEBEB"/>
<path d="M317.115 338.714C316.7 337.99 315.667 338.191 315.198 337.575C315.251 337.575 315.251 337.521 315.251 337.521H315.198C314.527 337.052 314.728 336.019 314.058 335.603C312.449 337.212 312.864 337.668 310.947 338.406C309.029 339.13 307.004 336.649 305.556 337.521C304.108 338.46 303.491 341.048 304.725 342.228C305.972 343.421 309.069 340.927 310.424 342.281C311.765 343.622 309.284 346.734 310.477 347.981C311.725 349.281 314.313 348.598 315.184 347.149C316.069 345.701 313.575 343.676 314.299 341.758C315.037 339.854 315.506 340.27 317.115 338.714Z" fill="#EBEBEB"/>
<path d="M344.35 337.521C342.902 336.636 340.877 339.13 338.96 338.406C337.042 337.682 337.511 337.105 335.902 335.51C335.232 335.925 335.433 336.958 334.762 337.374V337.427H334.709C334.293 338.098 333.26 337.896 332.845 338.567C334.454 340.176 334.87 339.868 335.594 341.772C336.318 343.69 333.837 345.714 334.709 347.163C335.594 348.611 338.182 349.282 339.416 347.994C340.609 346.747 338.115 343.649 339.469 342.295C340.81 340.954 343.921 343.435 345.168 342.241C346.429 341.048 345.799 338.46 344.35 337.521Z" fill="#EBEBEB"/>
<path d="M346.214 317.017C344.967 315.824 341.87 318.358 340.515 317.017C339.174 315.623 341.655 312.565 340.462 311.264C339.268 310.017 336.68 310.647 335.755 312.096C334.87 313.544 337.364 315.623 336.64 317.487C335.916 319.404 332.751 321.684 331.195 323.239C331.557 323.964 332.644 323.762 333.059 324.379C333.059 324.433 333.059 324.433 333.059 324.433C333.059 324.433 333.059 324.433 333.113 324.433C333.783 324.902 333.582 325.935 334.253 326.351C335.862 324.741 338.088 321.59 340.006 320.866C341.923 320.142 343.948 322.623 345.396 321.751C346.831 320.852 347.515 318.264 346.214 317.017Z" fill="#EBEBEB"/>
<path fill-rule="evenodd" clip-rule="evenodd" d="M313.012 332.868C311.403 335.094 313.012 340.216 316.217 339.707C316.834 339.6 317.464 339.506 318.027 339.398C319.999 339.09 319.167 339.868 318.805 341.839C319.744 345.004 330.15 345.004 331.129 341.839C330.713 339.868 329.882 339.09 331.853 339.398C332.47 339.506 333.046 339.6 333.663 339.707C336.868 340.23 338.477 335.094 336.868 332.868C345.853 309.146 304.054 309.146 313.012 332.868ZM317.156 337.575C314.93 337.105 314.353 333.793 314.983 332.09C315.546 330.427 318.041 329.703 319.797 330.065C321.5 330.481 323.995 332.09 323.364 333.954C322.707 335.872 319.395 338.044 317.156 337.575ZM323.901 340.015C323.378 340.954 322.292 339.452 322.292 338.513C322.292 337.628 323.069 335.148 323.901 335.925C324.719 336.703 324.464 339.13 323.901 340.015ZM326.02 340.015C325.456 339.13 325.188 336.703 326.02 335.925C326.851 335.148 327.629 337.628 327.629 338.513C327.629 339.439 326.529 340.941 326.02 340.015ZM332.751 337.575C330.525 338.044 327.213 335.872 326.543 333.954C325.926 332.09 328.407 330.481 330.11 330.065C331.866 329.703 334.361 330.427 334.924 332.09C335.541 333.793 334.977 337.105 332.751 337.575Z" fill="#FEFEFE"/>
<path fill-rule="evenodd" clip-rule="evenodd" d="M324.986 153.872C346.63 153.872 364.344 171.586 364.344 193.23V208.45C360 225.695 343.934 238.596 324.986 238.596C305.984 238.596 289.919 225.695 285.574 208.45V193.243C285.574 171.586 303.275 153.872 324.986 153.872Z" fill="#DFA24F"/>
<path fill-rule="evenodd" clip-rule="evenodd" d="M364.183 190.025C364.291 191.057 364.344 192.144 364.344 193.23V208.45C360 225.695 343.934 238.596 324.986 238.596C305.984 238.596 289.919 225.695 285.574 208.45V193.243C285.574 192.157 285.628 191.071 285.735 190.038C292.521 176.105 307.593 166.423 324.986 166.423C342.325 166.41 357.398 176.092 364.183 190.025Z" fill="#F7BA67"/>
<path fill-rule="evenodd" clip-rule="evenodd" d="M364.183 190.025C364.291 191.058 364.344 192.144 364.344 193.23V208.45C364.09 209.483 363.781 210.475 363.459 211.454C348.749 212.594 329.693 213.063 325.71 198.822H324.208C320.226 213.063 301.157 212.594 286.459 211.454C286.151 210.475 285.842 209.483 285.574 208.45V193.243C285.574 192.157 285.628 191.071 285.735 190.038C287.344 186.78 289.356 183.776 291.743 181.08C313.909 183.052 336.023 182.998 358.136 181.027C360.563 183.762 362.574 186.766 364.183 190.025Z" fill="#DFA24F"/>
<path fill-rule="evenodd" clip-rule="evenodd" d="M361.703 179.149C363.406 183.548 364.345 188.268 364.345 193.23V204.159C353.107 204.722 329.64 209.134 325.55 194.584H324.357C320.266 209.134 296.799 204.736 285.562 204.159V193.23C285.562 188.255 286.5 183.548 288.203 179.19C312.703 182.207 337.203 182.1 361.703 179.149Z" fill="#323B3F"/>
<path d="M305.14 186.659C299.856 186.659 295.605 189.247 295.605 192.412C295.605 195.577 299.856 198.165 305.14 198.165C310.423 198.165 314.674 195.577 314.674 192.412C314.674 189.247 310.423 186.659 305.14 186.659Z" fill="#EBAE5B"/>
<path d="M344.766 186.659C339.482 186.659 335.231 189.247 335.231 192.412C335.231 195.577 339.482 198.165 344.766 198.165C350.049 198.165 354.3 195.577 354.3 192.412C354.3 189.247 350.049 186.659 344.766 186.659Z" fill="#EBAE5B"/>
<path fill-rule="evenodd" clip-rule="evenodd" d="M215.749 66.8677C234.966 66.8677 250.548 82.4501 250.548 101.667C250.548 120.883 234.966 136.465 215.749 136.465C196.533 136.465 180.95 120.883 180.95 101.667C180.95 82.4635 196.546 66.8677 215.749 66.8677Z" fill="#FEFEFE"/>
<path fill-rule="evenodd" clip-rule="evenodd" d="M46.5015 126.783C64.3636 126.783 78.8732 141.28 78.8732 159.209C78.8732 177.071 64.377 191.58 46.5015 191.58C28.6395 191.58 14.1299 177.084 14.1299 159.209C14.1299 141.293 28.6395 126.783 46.5015 126.783Z" fill="#FEFEFE"/>
<path fill-rule="evenodd" clip-rule="evenodd" d="M79.2353 217.314C104.768 217.314 125.54 238.086 125.54 263.619C125.54 289.205 104.768 309.923 79.2353 309.923C53.6491 309.923 32.9307 289.205 32.9307 263.619C32.9307 238.086 53.6491 217.314 79.2353 217.314Z" fill="#FEFEFE"/>
<path fill-rule="evenodd" clip-rule="evenodd" d="M522.301 76.8582C545.192 76.8582 563.738 95.4041 563.738 118.295C563.738 141.132 545.192 159.678 522.301 159.678C499.464 159.678 480.918 141.132 480.918 118.295C480.918 95.4041 499.464 76.8582 522.301 76.8582Z" fill="#FEFEFE"/>
<path fill-rule="evenodd" clip-rule="evenodd" d="M591.603 257.504C615.164 257.504 634.327 276.667 634.327 300.228C634.327 323.789 615.164 342.952 591.603 342.952C568.042 342.952 548.879 323.789 548.879 300.228C548.866 276.667 568.028 257.504 591.603 257.504Z" fill="#FEFEFE"/>
<path fill-rule="evenodd" clip-rule="evenodd" d="M491.538 208.665C514.013 208.665 532.251 226.889 532.251 249.324C532.251 271.799 514.026 290.036 491.538 290.036C469.116 290.036 450.879 271.812 450.879 249.324C450.879 226.902 469.116 208.665 491.538 208.665Z" fill="#FEFEFE"/>
<path fill-rule="evenodd" clip-rule="evenodd" d="M520.853 110.008C532.613 110.008 542.134 119.542 542.134 131.289C542.134 143.05 532.6 152.571 520.853 152.571C509.106 152.571 499.571 143.036 499.571 131.289C499.571 119.542 509.092 110.008 520.853 110.008Z" fill="#232C30"/>
<path fill-rule="evenodd" clip-rule="evenodd" d="M522.153 110.061C532.868 110.678 541.423 119.274 542.094 130.002C541.477 139.791 533.283 147.556 523.347 147.556C512.994 147.556 504.6 139.161 504.6 128.808C504.586 118.818 512.31 110.678 522.153 110.061Z" fill="#323B3F"/>
<path fill-rule="evenodd" clip-rule="evenodd" d="M511.68 108.144H529.958C530.991 108.144 531.822 108.975 531.822 110.008C531.822 110.986 530.991 111.872 529.958 111.872H511.68C510.701 111.872 509.816 110.986 509.816 110.008C509.816 108.975 510.701 108.144 511.68 108.144Z" fill="#40494C"/>
<path fill-rule="evenodd" clip-rule="evenodd" d="M520.799 117.987C513.034 117.987 509.038 124.557 509.038 129.801C509.038 135.701 513.852 141.199 520.946 141.146V138.195C515.609 138.303 512.096 134.213 512.096 129.801C512.096 125.858 514.992 120.95 520.799 120.95C526.605 120.95 529.555 125.872 529.555 129.801C529.555 135.755 526.498 133.891 526.391 132.134V127.977C526.391 124.557 523.186 123.632 520.638 123.632C518.666 123.632 516.856 124.611 516.025 125.134L516.91 127.615C517.741 127.146 518.774 126.582 520.021 126.582C521.268 126.582 522.046 126.891 522.046 127.776V128.554C521.938 128.446 521.268 127.776 519.981 127.776C517.54 127.776 515.582 129.224 515.582 131.718C515.582 134.159 517.755 135.285 519.726 135.285C520.504 135.285 521.952 135.031 522.622 133.891L523.145 134.829C524.701 137.002 532.626 139.134 532.626 129.801C532.613 124.557 528.563 117.987 520.799 117.987ZM522.046 131.759C521.938 132.121 521.268 132.483 520.705 132.483C520.088 132.483 519.619 132.121 519.619 131.504C519.619 130.887 519.981 130.364 520.812 130.364C521.791 130.364 521.952 130.887 522.059 131.034V131.759H522.046Z" fill="#6C787F"/>
<path d="M518.572 105.14C519.766 97.3755 523.963 89.7587 537.212 95.6591L535.871 98.6629C526.189 94.3181 523.44 99.387 523.024 105.14H518.572Z" fill="#323B3F"/>
<path fill-rule="evenodd" clip-rule="evenodd" d="M514.229 108.144H527.491V106.079C527.491 105.556 527.022 105.14 526.512 105.14H515.167C514.644 105.14 514.229 105.556 514.229 106.079V108.144Z" fill="#6C787F"/>
<path fill-rule="evenodd" clip-rule="evenodd" d="M538.151 87.2778C539.345 94.3717 538.151 92.9771 545.352 94.2644C538.983 97.2146 539.76 95.7663 542.657 102.391C536.287 100.218 537.896 100.058 535.255 106.695C533.645 99.387 535.094 100.487 527.691 100.795C533.9 94.9886 532.921 96.9062 528.992 88.9809C536.032 93.0709 534.571 94.1035 538.151 87.2778Z" fill="#E13121"/>
<path fill-rule="evenodd" clip-rule="evenodd" d="M537.534 91.2605C537.373 95.4042 537.588 95.659 541.423 95.203C538.004 96.1417 536.971 96.9061 540.082 100.232C536.877 98.4214 536.555 98.4214 535.737 102.565C535.791 98.113 535.536 97.6973 531.54 99.2528C534.799 97.1341 535.322 96.5038 532.318 92.5747C535.509 95.0957 535.979 95.0421 537.534 91.2605Z" fill="#FCC900"/>
<path fill-rule="evenodd" clip-rule="evenodd" d="M489.204 234.519L479.576 230.939V223.644L489.204 221.149V234.519Z" fill="#323B3F"/>
<path fill-rule="evenodd" clip-rule="evenodd" d="M483.304 234.519H499.825C501.89 234.519 503.66 236.222 503.66 238.354V262.439H479.469V238.341C479.469 236.222 481.185 234.519 483.304 234.519Z" fill="#323B3F"/>
<path fill-rule="evenodd" clip-rule="evenodd" d="M491.538 280.757C483.974 278.423 480.193 272.054 479.469 262.425C487.542 262.425 495.574 262.425 503.66 262.425C502.936 272.067 499.155 278.437 491.538 280.757Z" fill="#C11F0D"/>
<path fill-rule="evenodd" clip-rule="evenodd" d="M487.288 234.519H495.83C496.916 234.519 497.801 236.222 497.801 238.354V262.439H485.316V238.341C485.33 236.222 486.201 234.519 487.288 234.519Z" fill="#40494C"/>
<path fill-rule="evenodd" clip-rule="evenodd" d="M491.538 280.757C487.649 278.423 485.691 272.054 485.329 262.425C489.473 262.425 493.67 262.425 497.814 262.425C497.438 272.067 495.48 278.437 491.538 280.757Z" fill="#D93725"/>
<path fill-rule="evenodd" clip-rule="evenodd" d="M489.205 234.519L476.935 225.239V217.944L489.205 221.149V234.519Z" fill="#40494C"/>
<path fill-rule="evenodd" clip-rule="evenodd" d="M493.925 234.519L503.553 230.939V223.644L493.925 221.149V234.519Z" fill="#323B3F"/>
<path fill-rule="evenodd" clip-rule="evenodd" d="M493.925 234.519L506.195 225.239V217.944L493.925 221.149V234.519Z" fill="#40494C"/>
<path fill-rule="evenodd" clip-rule="evenodd" d="M488.012 234.519H495.052V221.471C495.052 220.948 494.636 220.492 494.113 220.492H488.991C488.468 220.492 488.012 220.962 488.012 221.471V234.519Z" fill="#5F6C72"/>
<path d="M490.399 242.646H492.786C494.234 242.646 495.119 241.76 495.119 240.366V238.395H487.972V240.366C487.972 241.814 488.897 242.646 490.399 242.646ZM489.366 239.843H493.765V240.366C493.765 240.889 493.403 241.144 492.786 241.144H490.399C489.728 241.144 489.366 240.889 489.366 240.366V239.843Z" fill="#FCC900"/>
<path d="M490.399 247.929H492.786C494.234 247.929 495.119 247.098 495.119 245.649V243.678H487.972V245.703C487.972 247.098 488.897 247.929 490.399 247.929ZM489.366 245.126H493.765V245.689C493.765 246.212 493.403 246.467 492.786 246.467H490.399C489.728 246.467 489.366 246.212 489.366 245.689V245.126Z" fill="#FCC900"/>
<path d="M493.403 254.245C491.23 254.245 491.069 257.048 489.876 257.048C489.514 257.048 489.259 256.793 489.259 256.324C489.259 255.854 489.514 255.546 490.09 255.546V254.098C488.642 254.098 487.864 254.929 487.864 256.27C487.864 257.718 488.696 258.55 489.889 258.55C492.169 258.55 492.223 255.707 493.362 255.707C493.671 255.707 493.885 255.908 493.885 256.324C493.885 256.739 493.684 256.941 493.215 256.941V258.442C494.516 258.442 495.28 257.611 495.28 256.324C495.267 254.969 494.489 254.245 493.403 254.245Z" fill="#FCC900"/>
<path d="M490.291 253.467H492.826C494.328 253.467 495.266 252.582 495.266 251.134C495.266 249.686 494.328 248.801 492.826 248.801H490.291C488.789 248.801 487.851 249.686 487.851 251.134C487.864 252.582 488.789 253.467 490.291 253.467ZM490.291 250.316H492.826C493.496 250.316 493.858 250.571 493.858 251.148C493.858 251.671 493.496 251.979 492.826 251.979H490.291C489.621 251.979 489.259 251.671 489.259 251.148C489.259 250.571 489.621 250.316 490.291 250.316Z" fill="#FCC900"/>
<path fill-rule="evenodd" clip-rule="evenodd" d="M598.644 171.332C604.451 171.332 609.211 176.038 609.211 181.899C609.211 187.705 604.451 192.466 598.644 192.466C592.797 192.466 588.023 187.705 588.023 181.899C588.023 176.038 592.784 171.332 598.644 171.332Z" fill="#FEFEFE"/>
<path fill-rule="evenodd" clip-rule="evenodd" d="M449.069 158.015C458.698 158.015 466.529 165.78 466.529 175.422C466.529 185.104 458.711 192.881 449.069 192.881C439.441 192.881 431.609 185.117 431.609 175.422C431.623 165.793 439.441 158.015 449.069 158.015Z" fill="#FEFEFE"/>
<path fill-rule="evenodd" clip-rule="evenodd" d="M100.933 106.28C108.134 106.28 113.98 112.127 113.98 119.328C113.98 126.582 108.134 132.429 100.933 132.429C93.6778 132.429 87.8311 126.582 87.8311 119.328C87.8311 112.14 93.6912 106.28 100.933 106.28Z" fill="#FEFEFE"/>
<path fill-rule="evenodd" clip-rule="evenodd" d="M142.517 306.919C149.771 306.919 155.618 312.766 155.618 319.967C155.618 327.222 149.771 333.069 142.517 333.069C135.315 333.069 129.469 327.222 129.469 319.967C129.469 312.766 135.329 306.919 142.517 306.919Z" fill="#FEFEFE"/>
<path fill-rule="evenodd" clip-rule="evenodd" d="M188.406 88.981H227.147C228.18 88.981 229.011 89.8124 229.011 90.8449V112.435C229.011 113.468 228.18 114.299 227.147 114.299H188.406C187.373 114.299 186.542 113.468 186.542 112.435V90.8449C186.542 89.8124 187.373 88.981 188.406 88.981Z" fill="#81D8DF"/>
<path d="M229.011 92.4541H186.542V96.0748H229.011V92.4541Z" fill="#40494C"/>
<path fill-rule="evenodd" clip-rule="evenodd" d="M189.291 98.0459H210.68C210.841 98.0459 210.935 98.2068 210.935 98.3543V100.473C210.935 100.634 210.827 100.782 210.68 100.782H189.291C189.13 100.782 189.036 100.621 189.036 100.473V98.3543C189.036 98.2068 189.13 98.0459 189.291 98.0459Z" fill="#FEFEFE"/>
<path d="M213.215 108.251C205.182 108.251 197.217 108.251 189.184 108.251C189.023 108.251 188.876 108.412 188.876 108.559C188.876 108.761 188.876 108.921 188.876 109.082C188.876 109.284 189.037 109.444 189.184 109.444C197.217 109.444 205.182 109.444 213.215 109.444C213.376 109.444 213.523 109.284 213.523 109.082C213.523 108.921 213.523 108.774 213.523 108.559C213.523 108.398 213.376 108.251 213.215 108.251Z" fill="#6FC8D1"/>
<path d="M213.215 110.785H189.184C189.023 110.785 188.876 110.946 188.876 111.094V111.617C188.876 111.818 189.037 111.925 189.184 111.925H213.215C213.376 111.925 213.523 111.818 213.523 111.617V111.094C213.523 110.946 213.376 110.785 213.215 110.785Z" fill="#6FC8D1"/>
<path d="M213.215 105.717C205.182 105.717 197.217 105.717 189.184 105.717C189.023 105.717 188.876 105.877 188.876 106.079C188.876 106.24 188.876 106.387 188.876 106.602C188.876 106.763 189.037 106.91 189.184 106.91C197.217 106.91 205.182 106.91 213.215 106.91C213.376 106.91 213.523 106.749 213.523 106.602C213.523 106.4 213.523 106.24 213.523 106.079C213.523 105.864 213.376 105.717 213.215 105.717Z" fill="#6FC8D1"/>
<path d="M213.215 103.222H189.184C189.023 103.222 188.876 103.329 188.876 103.531V104.054C188.876 104.215 189.037 104.362 189.184 104.362H213.215C213.376 104.362 213.523 104.201 213.523 104.054V103.531C213.523 103.329 213.376 103.222 213.215 103.222Z" fill="#6FC8D1"/>
<path d="M220.108 97.3218C218.083 96.7586 216.071 96.2356 214.1 95.6589C213.899 95.6589 213.738 95.6589 213.537 95.7662C211.566 96.7988 209.554 97.8314 207.583 98.8773C206.497 99.4405 207.838 100.902 208.414 100.58C210.332 99.6015 212.089 98.1398 214.006 97.1609C215.924 97.6838 217.734 98.77 219.652 99.226C220.067 99.3333 220.537 98.5555 220.631 98.1934C220.725 97.7911 220.47 97.4291 220.108 97.3218Z" fill="#232C30"/>
<path d="M219.584 102.029C216.889 102.914 214.14 103.785 211.458 104.617C211.257 104.724 211.042 104.871 210.989 105.086C209.956 107.728 208.655 110.316 207.623 112.958C207.368 113.628 208.87 114.62 209.286 113.575C210.264 111.04 211.257 108.452 212.236 105.904C214.824 105.073 217.774 104.925 220.362 104.094C220.778 103.986 220.617 102.847 220.523 102.484C220.416 102.082 220 101.881 219.584 102.029Z" fill="#232C30"/>
<path d="M223.112 81.8332C223.313 81.3102 221.663 80.0765 221.194 81.2163C220.054 84.1665 218.861 87.0631 217.721 90.0267C217.667 90.2278 217.667 90.4424 217.721 90.5899C218.7 92.7623 219.746 94.8945 220.725 97.0133C220.886 97.3753 221.288 97.5765 221.663 97.3753C222.025 97.2144 223.42 97.0669 223.273 96.7048C222.294 94.6397 220.162 92.36 219.183 90.2815C220.309 87.4252 221.972 84.6895 223.112 81.8332Z" fill="#232C30"/>
<path d="M230.621 107.889C230.514 107.473 230.098 107.272 229.682 107.366C229.32 107.473 228.341 107.983 228.435 108.398C229.213 111.04 230.715 113.521 231.493 116.163C229.937 118.389 228.328 120.668 226.786 122.894C226.169 123.833 227.819 124.504 228.234 123.927C229.843 121.54 231.238 119.059 232.901 116.726C233.008 116.525 233.062 116.31 233.008 116.109C232.177 113.373 231.399 110.624 230.621 107.889Z" fill="#232C30"/>
<path d="M238.962 108.921C237.353 107.527 235.797 106.172 234.255 104.831C233.947 104.577 233.477 104.63 233.222 104.885C232.968 105.193 232.552 106.025 232.86 106.28C234.362 107.58 236.28 108.506 237.782 109.807C238.037 111.979 237.835 114.205 238.09 116.377C238.144 116.994 240.061 117.262 239.954 116.123C239.699 113.843 239.431 111.617 239.176 109.391C239.163 109.176 239.056 109.029 238.962 108.921Z" fill="#232C30"/>
<path d="M245.386 93.7009C243.683 96.2354 242.328 99.1454 240.572 101.626C238.346 101.988 235.235 101.519 233.009 101.881C232.593 101.935 233.21 103.182 233.317 103.584C233.371 103.946 233.733 104.201 234.148 104.147C236.482 103.785 238.815 103.423 241.135 103.007C241.336 103.007 241.497 102.847 241.604 102.699C243.415 100.111 245.171 97.5227 246.995 94.9346C247.666 93.9021 245.694 93.2316 245.386 93.7009Z" fill="#232C30"/>
<path d="M230.621 85.0517C229.012 86.5 228.288 88.4176 227.416 90.228C228.811 90.1743 230.219 90.0671 231.613 90.0268C231.452 88.5249 231.09 87.023 231.774 85.4138C232.378 83.8582 231.345 84.4215 230.621 85.0517Z" fill="#141D23"/>
<path d="M237.554 88.5116C236.615 89.9599 235.167 90.4828 233.826 91.207C234.55 92.4005 235.274 93.6476 235.999 94.8277C237.031 93.071 238.171 91.3545 238.479 89.2357C238.654 88.3104 238.493 87.1169 237.554 88.5116Z" fill="#141D23"/>
<path fill-rule="evenodd" clip-rule="evenodd" d="M229.641 96.4368C227.415 95.2433 225.189 94.0499 222.963 92.91C220.268 91.4617 210.331 109.686 219.49 115.546C229.44 119.851 238.961 101.412 236.266 100.004C234.094 98.8238 231.868 97.6303 229.641 96.4368Z" fill="#A91807"/>
<path fill-rule="evenodd" clip-rule="evenodd" d="M217.251 113.427C217.814 114.205 218.552 114.929 219.477 115.546C220.456 115.962 221.502 116.163 222.481 116.163C223.366 111.295 225.686 104.925 229.052 97.4692C224.761 104.416 220.778 109.954 217.251 113.427Z" fill="#910000"/>
<path fill-rule="evenodd" clip-rule="evenodd" d="M233.048 89.9733C227.764 87.1304 225.954 88.6725 223.205 93.0307C226.41 96.4503 230.607 98.7836 235.998 99.8698C238.13 95.1495 238.385 92.7625 233.048 89.9733Z" fill="#313C41"/>
<path fill-rule="evenodd" clip-rule="evenodd" d="M224.359 91.3678C223.997 91.8908 223.634 92.454 223.219 93.0306C226.424 96.4502 230.621 98.7835 236.012 99.8697C236.32 99.1992 236.575 98.5689 236.79 98.0057C237.313 95.3103 236.32 93.4463 232.338 91.3812C228.395 89.2356 226.263 89.4502 224.359 91.3678Z" fill="#232C30"/>
<path fill-rule="evenodd" clip-rule="evenodd" d="M620.703 285.477C620.394 286 619.818 286.362 619.201 286.362H563.992C563.375 286.362 562.799 286 562.49 285.477L591.603 264.705L620.703 285.477Z" fill="#F1B324"/>
<path fill-rule="evenodd" clip-rule="evenodd" d="M563.268 285.061H619.872C620.851 285.061 621.629 285.839 621.629 286.818V321C621.629 321.979 620.851 322.757 619.872 322.757H563.268C562.33 322.757 561.565 321.979 561.565 321V286.818C561.565 285.839 562.343 285.061 563.268 285.061Z" fill="#F1B324"/>
<path d="M580.514 295.266C584.711 302.467 561.82 321.885 561.82 321.885L591.604 301.113C591.604 301.113 576.317 288.011 580.514 295.266Z" fill="#E5A718"/>
<path d="M602.627 295.266C606.878 288.011 591.591 301.113 591.591 301.113L621.374 321.885C621.374 321.885 598.43 302.467 602.627 295.266Z" fill="#E5A718"/>
<path fill-rule="evenodd" clip-rule="evenodd" d="M621.374 285.946C621.119 285.423 620.543 285.061 619.872 285.061H563.269C562.652 285.061 562.075 285.423 561.82 285.946L591.604 306.718L621.374 285.946Z" fill="#CD8F00"/>
<path fill-rule="evenodd" clip-rule="evenodd" d="M621.374 321.885C621.119 322.408 620.543 322.77 619.872 322.77H563.269C562.652 322.77 562.075 322.408 561.82 321.885L591.604 301.113L621.374 321.885Z" fill="#FCC900"/>
<path fill-rule="evenodd" clip-rule="evenodd" d="M576.839 279.054H606.354C606.917 279.054 607.387 279.523 607.387 280.086V295.722L595.573 303.902L591.59 301.1L587.553 303.902L575.793 295.722V280.086C575.806 279.523 576.262 279.054 576.839 279.054Z" fill="#FEED8A"/>
<path d="M584.187 289.098C583.933 288.937 583.718 288.789 583.517 288.682C583.262 288.575 583.048 288.481 582.9 288.374C582.739 288.266 582.699 288.172 582.699 288.065C582.699 287.81 582.86 287.649 583.168 287.649C583.477 287.649 583.946 287.757 584.67 287.904L584.871 286.201C584.201 286.04 583.53 286 582.846 286C582.23 286 581.707 286.201 581.344 286.563C580.982 286.925 580.781 287.448 580.781 288.119C580.781 288.481 580.889 288.843 581.036 289.098C581.197 289.406 581.398 289.621 581.599 289.768C581.854 289.929 582.069 290.023 582.27 290.184C582.525 290.291 582.739 290.385 582.887 290.492C583.048 290.6 583.088 290.747 583.088 290.854C583.088 291.163 582.927 291.27 582.672 291.27C582.364 291.27 581.841 291.163 581.063 290.962L580.956 292.571C581.572 292.772 582.203 292.879 582.873 292.879C583.544 292.879 584.067 292.678 584.429 292.316C584.791 291.954 584.992 291.377 584.992 290.707C584.992 290.345 584.885 290.036 584.737 289.728C584.603 289.46 584.402 289.259 584.187 289.098Z" fill="#747263"/>
<path d="M591.442 286.094L590.248 292.772H591.951L592.152 291.686H593.399L593.601 292.772H595.411L594.164 286.094H591.442ZM592.38 290.452L592.796 288.065H592.85L593.212 290.452H592.38Z" fill="#747263"/>
<path d="M602.425 292.772L602.211 286.094H599.837L599.207 289.674H599.167L598.536 286.094H596.163L595.895 292.772H597.557V289.259H597.665L598.282 292.772H599.985L600.668 289.259H600.709V292.772H602.425Z" fill="#747263"/>
<path d="M587.822 286.094H585.649V292.772H587.46V290.546H587.983C588.707 290.546 589.23 290.385 589.592 290.077C589.954 289.715 590.115 289.138 590.115 288.32C590.115 287.542 589.914 286.979 589.552 286.617C589.163 286.255 588.6 286.094 587.822 286.094ZM588.13 289.151C588.077 289.259 587.969 289.312 587.768 289.312H587.46V287.609H587.715C587.916 287.609 588.077 287.717 588.13 287.81C588.238 287.971 588.238 288.173 588.238 288.481C588.238 288.789 588.238 289.004 588.13 289.151Z" fill="#747263"/>
<path fill-rule="evenodd" clip-rule="evenodd" d="M105.237 258.282C109.998 258.08 114.302 265.59 117.306 278.276C117.722 280.193 109.636 283.144 109.904 280.609C110.628 271.343 110.427 260.977 107.101 262.787C106.431 260.87 105.908 260.253 105.237 258.282Z" fill="#C75E00"/>
<path fill-rule="evenodd" clip-rule="evenodd" d="M53.3943 237.469C51.3291 237.67 49.2506 233.486 50.4977 231.77C60.8502 223.228 84.264 230.684 76.0839 255.546C74.6357 255.653 73.1337 255.747 71.6855 255.854C69.4058 249.954 67.1797 244.094 64.9 238.193C61.0514 237.939 57.2295 237.724 53.3943 237.469Z" fill="#C75E00"/>
<path fill-rule="evenodd" clip-rule="evenodd" d="M98.1432 255.546C90.3252 255.546 82.5608 255.546 74.7294 255.546C75.5608 248.345 75.0915 240.835 70.693 237.054C66.8041 233.634 55.4727 233.326 52.9785 238.086C50.3903 243.008 52.5627 252.381 53.7026 252.743C54.4267 253.682 60.488 253.628 59.0934 250.718C58.7313 249.994 58.1145 249.377 57.6451 248.693C59.7639 248.331 61.2658 246.669 62.7141 244.711C59.2945 268.487 61.3731 269.72 67.944 292.879C69.4459 292.879 70.9478 292.879 72.4497 292.879C73.1202 287.958 73.7505 282.983 74.3673 278.061C74.8903 274.28 81.4612 274.534 85.6049 275.996C93.6777 278.839 91.3041 287.287 90.3118 293.241C92.1758 293.241 94.0398 293.241 95.9037 293.241C104.768 286.362 118.902 255.546 98.1432 255.546Z" fill="#D96D00"/>
<path d="M72.1947 238.663H52.7234C52.5625 238.971 52.4686 239.333 52.3613 239.642H72.8652C72.664 239.333 72.4495 238.971 72.1947 238.663Z" fill="#D06600"/>
<path d="M62.2986 245.234H51.7852C51.7852 245.596 51.8388 245.904 51.8388 246.266H61.4671C61.7756 245.958 62.0438 245.596 62.2986 245.234Z" fill="#D06600"/>
<path d="M53.7025 252.743C53.7562 252.797 53.8098 252.851 53.8098 252.851H58.2619C58.7849 252.649 59.147 252.287 59.2408 251.872H53.0723C53.2868 252.381 53.5416 252.69 53.7025 252.743Z" fill="#D06600"/>
<path d="M62.459 246.266H74.89C74.8364 245.904 74.7827 245.596 74.7291 245.234H62.6065C62.5529 245.596 62.5126 245.904 62.459 246.266Z" fill="#D06600"/>
<path d="M61.6279 252.851H74.9843C74.9843 252.542 75.0379 252.18 75.0379 251.872H61.7754C61.7352 252.18 61.6816 252.542 61.6279 252.851Z" fill="#D06600"/>
<path d="M90.0034 279.255H105.586C105.747 278.893 105.841 278.584 106.001 278.222H89.2256C89.5474 278.531 89.8022 278.893 90.0034 279.255Z" fill="#D06600"/>
<path d="M62.2451 272.63H107.919C108.027 272.322 108.08 271.96 108.174 271.651H62.0439C62.0976 271.96 62.1915 272.322 62.2451 272.63Z" fill="#D06600"/>
<path d="M63.9608 279.255H74.2195L74.3804 278.222H63.7061C63.7463 278.584 63.8536 278.893 63.9608 279.255Z" fill="#D06600"/>
<path d="M106.431 258.443H61.1591C61.1591 258.805 61.1591 259.113 61.1055 259.475H107.196C106.941 259.113 106.686 258.751 106.431 258.443Z" fill="#D06600"/>
<path d="M108.858 265.067H61.1592C61.1592 265.376 61.2128 265.738 61.2128 266.046H108.912C108.912 265.697 108.912 265.376 108.858 265.067Z" fill="#D06600"/>
<path fill-rule="evenodd" clip-rule="evenodd" d="M57.6455 248.707C59.7643 248.345 61.2662 246.682 62.7145 244.724C60.5421 259.904 60.5957 265.912 62.6072 274.24C62.044 263.364 62.3524 253.266 64.1627 244.563C66.3888 244.148 67.3275 242.592 67.9444 240.782C66.3888 242.176 64.6321 243.222 62.2451 243.37C61.4137 245.596 59.5497 247.151 57.6455 248.707Z" fill="#D06600"/>
<path d="M65.0479 282.889C65.8793 285.732 66.8582 289.004 67.9444 292.879C69.4463 292.879 70.9482 292.879 72.4502 292.879L73.7911 282.621C72.544 281.95 71.0957 281.534 69.5938 281.534C67.9444 281.534 66.3352 282.057 65.0479 282.889Z" fill="#D06600"/>
<path d="M94.7244 281.534C93.4773 281.534 92.2838 281.843 91.1976 282.312C91.8681 285.785 90.8355 289.875 90.3125 293.241C92.1765 293.241 94.0405 293.241 95.9045 293.241C97.5673 291.994 99.847 289.259 102.019 285.785C100.571 283.251 97.8221 281.534 94.7244 281.534Z" fill="#D06600"/>
<path d="M94.7247 282.889C90.7821 282.889 87.5771 286.094 87.5771 289.983C87.5771 293.925 90.7821 297.13 94.7247 297.13C98.6136 297.13 101.819 293.925 101.819 289.983C101.819 286.094 98.6001 282.889 94.7247 282.889Z" fill="#EA7600"/>
<path d="M69.6075 282.889C65.665 282.889 62.5137 286.094 62.5137 289.983C62.5137 293.925 65.6784 297.13 69.6075 297.13C73.5367 297.13 76.7014 293.925 76.7014 289.983C76.7014 286.094 73.5367 282.889 69.6075 282.889Z" fill="#EA7600"/>
<path fill-rule="evenodd" clip-rule="evenodd" d="M69.6074 287.234C71.163 287.234 72.4101 288.481 72.4101 289.983C72.4101 291.538 71.163 292.785 69.6074 292.785C68.1055 292.785 66.8584 291.538 66.8584 289.983C66.8584 288.481 68.1055 287.234 69.6074 287.234Z" fill="#D06600"/>
<path fill-rule="evenodd" clip-rule="evenodd" d="M94.7236 287.234C96.2255 287.234 97.4726 288.481 97.4726 289.983C97.4726 291.538 96.2255 292.785 94.7236 292.785C93.168 292.785 91.9209 291.538 91.9209 289.983C91.9209 288.481 93.168 287.234 94.7236 287.234Z" fill="#D06600"/>
<path fill-rule="evenodd" clip-rule="evenodd" d="M54.2266 242.337C56.2515 241.667 58.0618 240.634 59.7649 239.441C58.8798 242.807 57.0158 244.711 54.2266 242.337Z" fill="#FCC900"/>
<path fill-rule="evenodd" clip-rule="evenodd" d="M35.1574 167.027L49.7072 155.535C50.0156 155.28 50.5386 155.333 50.7934 155.695L65.9198 174.858C66.1746 175.167 66.121 175.69 65.8125 175.945L51.2627 187.437C50.9543 187.692 50.4313 187.638 50.1765 187.276L35.0635 168.113C34.7416 167.805 34.8489 167.295 35.1574 167.027Z" fill="#FFD86F"/>
<path fill-rule="evenodd" clip-rule="evenodd" d="M35.1571 167.027L38.362 164.492L42.3046 163.875L44.3697 164.184C44.3697 164.184 39.3007 168.797 40.9502 175.636L35.0498 168.126C34.7413 167.805 34.8486 167.295 35.1571 167.027Z" fill="#F3CC63"/>
<path d="M44.5843 173.142L42.7203 170.755L41.8486 171.439L44.2758 174.483L45.8314 173.249L45.3084 172.525L44.5843 173.142Z" fill="#C76534"/>
<path d="M52.1473 168.274L49.7201 165.217L48.8887 165.887L51.3159 168.945L52.1473 168.274Z" fill="#C76534"/>
<path d="M53.3405 167.295L52.2543 165.887V165.833L54.011 166.772L54.8424 166.155L52.4018 163.098L51.6777 163.661L52.8175 165.109L52.7639 165.163L51.0072 164.184L50.1758 164.854L52.6164 167.912L53.3405 167.295Z" fill="#C76534"/>
<path d="M49.667 170.299C49.828 170.138 49.9218 170.044 49.9755 169.883C49.9755 169.83 50.0291 169.776 50.0291 169.682H50.0828L50.2437 169.789L50.8605 169.32L49.5195 167.617L48.5808 168.395L49.0502 168.958L49.2513 168.757L49.5598 169.172C49.3988 169.28 49.3586 169.374 49.305 169.374C49.1441 169.534 48.9965 169.534 48.8356 169.427C48.6747 169.374 48.5272 169.172 48.2724 168.904C48.0713 168.649 47.964 168.381 47.9103 168.234C47.8567 168.073 47.9103 167.925 48.0713 167.818C48.1785 167.657 48.487 167.563 48.849 167.402L48.326 166.464C48.0176 166.571 47.7092 166.772 47.3471 167.027C46.9314 167.335 46.7303 167.751 46.7839 168.167C46.8375 168.582 47.0387 169.052 47.4544 169.561C48.259 170.607 48.9965 170.808 49.667 170.299Z" fill="#C76534"/>
<path d="M47.8032 171.117C47.8032 170.701 47.602 170.232 47.1327 169.669C46.717 169.146 46.3013 168.837 45.9392 168.73C45.5771 168.623 45.1614 168.73 44.6921 169.092C44.2763 169.4 44.0752 169.816 44.0752 170.178C44.0752 170.594 44.33 171.063 44.7457 171.573C45.1614 172.136 45.5771 172.458 45.9928 172.552C46.3549 172.713 46.7706 172.552 47.1863 172.243C47.6422 171.895 47.8568 171.533 47.8032 171.117ZM46.6633 171.532C46.5024 171.64 46.3549 171.693 46.2476 171.586C46.0867 171.533 45.9392 171.385 45.6844 171.023L45.5771 170.916C45.376 170.607 45.215 170.393 45.1614 170.245C45.1078 170.138 45.1614 169.99 45.3223 169.883C45.4832 169.776 45.6308 169.722 45.738 169.829C45.899 169.883 46.0465 170.084 46.3013 170.352L46.4085 170.513C46.6633 170.822 46.7706 171.036 46.8242 171.184C46.8645 171.278 46.8108 171.439 46.6633 171.532Z" fill="#C76534"/>
<path d="M54.8964 172.619C54.7355 172.512 54.5879 172.512 54.427 172.512C54.2661 172.512 54.1186 172.565 53.9577 172.565C53.7968 172.619 53.7029 172.619 53.542 172.673C53.4347 172.673 53.3811 172.673 53.3408 172.619C53.2335 172.458 53.2872 172.364 53.4481 172.203C53.5554 172.15 53.8102 172.002 54.1722 171.787L53.6493 170.956C53.2872 171.117 52.9788 171.318 52.6703 171.573C52.4155 171.828 52.201 172.096 52.201 172.404C52.1473 172.713 52.2546 173.021 52.5094 173.289C52.6167 173.491 52.7642 173.598 52.9788 173.705C53.1397 173.759 53.3408 173.812 53.5017 173.759C53.6627 173.759 53.8102 173.759 53.9711 173.705C54.0784 173.651 54.2259 173.651 54.3332 173.651C54.4404 173.651 54.5343 173.651 54.5879 173.705C54.6952 173.866 54.6416 173.96 54.5343 174.067C54.3734 174.174 54.1186 174.322 53.6493 174.483L54.1722 175.261C54.5343 175.153 54.8964 174.952 55.2048 174.697C55.5132 174.496 55.6742 174.174 55.7278 173.92C55.7278 173.611 55.6205 173.303 55.4194 172.981C55.2584 172.833 55.0975 172.673 54.8964 172.619Z" fill="#C76534"/>
<path d="M57.485 171.331C57.3241 171.17 57.1766 171.023 57.0156 170.969C56.8547 170.862 56.6536 170.862 56.4927 170.862C56.3317 170.862 56.1842 170.916 56.0233 170.916C55.916 170.969 55.7685 170.969 55.6612 171.023C55.554 171.023 55.4601 171.023 55.4601 170.969C55.3528 170.808 55.3528 170.714 55.5137 170.554C55.6746 170.5 55.8758 170.352 56.2915 170.138L55.7685 169.306C55.4064 169.467 55.098 169.668 54.7896 169.923C54.4812 170.124 54.3202 170.446 54.2666 170.755C54.2666 171.063 54.3739 171.372 54.575 171.64C54.736 171.841 54.8835 171.948 55.0444 172.055C55.2455 172.109 55.4065 172.163 55.5674 172.109C55.7283 172.109 55.8758 172.055 56.0367 172.055C56.1976 172.002 56.2915 172.002 56.4524 172.002C56.5597 172.002 56.6536 172.002 56.6536 172.055C56.7609 172.216 56.7609 172.31 56.5999 172.418C56.4927 172.525 56.1842 172.672 55.7685 172.833L56.2915 173.611C56.6536 173.504 56.962 173.303 57.2704 173.048C57.5789 172.847 57.7934 172.525 57.7934 172.27C57.8471 171.948 57.7398 171.64 57.485 171.331Z" fill="#C76534"/>
<path d="M49.8145 173.92L51.6784 177.393L52.4562 176.776L52.2014 176.253L52.7646 175.784L53.234 176.199L54.0654 175.529L51.1152 172.941L49.8145 173.92ZM52.2014 175.261L51.8394 175.569L51.1689 174.322L52.2014 175.261Z" fill="#C76534"/>
<path d="M49.8675 177.232C50.176 176.977 50.3905 176.709 50.3905 176.4C50.4442 176.146 50.3369 175.837 50.0285 175.421C49.72 175.059 49.4652 174.898 49.1434 174.858C48.835 174.858 48.5265 174.965 48.1645 175.22L47.1855 176.052L49.6262 179.109L50.4576 178.439L49.6262 177.46L49.8675 177.232ZM49.3043 176.722L49.1434 176.829L48.5802 176.052L48.6741 175.985C48.7813 175.877 48.835 175.877 48.9288 175.877C49.0361 175.931 49.0898 176.038 49.2373 176.132C49.3445 176.293 49.3982 176.387 49.3982 176.494C49.4518 176.561 49.3982 176.668 49.3043 176.722Z" fill="#C76534"/>
<path fill-rule="evenodd" clip-rule="evenodd" d="M44.0216 161.851C44.9603 161.851 45.7247 162.628 45.7247 163.554C45.7247 164.533 44.9469 165.257 44.0216 165.257C43.0427 165.257 42.3185 164.533 42.3185 163.554C42.3051 162.628 43.0293 161.851 44.0216 161.851Z" fill="#F3CC63"/>
<path d="M42.7734 157.962C43.6049 158.015 44.329 157.962 44.9459 157.801C44.9459 158.055 44.9459 158.27 44.9459 158.525C44.9459 158.833 44.8922 159.088 44.8922 159.356C45.7236 158.686 46.555 158.015 47.3731 157.331C47.3731 155.414 47.3731 153.55 47.3731 151.632C46.193 154.032 44.7447 156.205 42.7734 157.962Z" fill="#EBEBEB"/>
<path d="M42.8273 162.736C39.8771 164.707 34.7008 163.353 34.7008 158.538C34.7008 153.054 34.7008 147.502 34.7008 141.964C36.0016 141.494 36.9269 140.261 36.9269 138.799C36.9269 136.881 35.3713 135.326 33.4537 135.326C31.5897 135.326 30.0342 136.881 30.0342 138.799C30.0342 140.247 30.9192 141.494 32.2066 141.964C32.2066 147.502 32.2066 153.04 32.2066 158.538C32.2066 165.686 39.9173 167.711 44.3828 164.707C45.2143 163.969 44.3828 161.904 42.8273 162.736ZM33.4537 140.301C32.6223 140.301 31.9518 139.63 31.9518 138.799C31.9518 137.914 32.6223 137.243 33.4537 137.243C34.3388 137.243 35.0093 137.914 35.0093 138.799C35.0093 139.63 34.3388 140.301 33.4537 140.301Z" fill="#EBEBEB"/>
<path d="M138.843 194.169L138.172 193.86L137.448 193.552L136.724 193.243L136 192.975L135.276 192.72L135.007 192.613L134.189 195.054L134.391 195.148L135.061 195.416L135.745 195.671L136.415 195.925L137.086 196.247L137.756 196.556L138.481 196.864L138.789 197.012L139.929 194.692L139.567 194.531L138.843 194.169Z" fill="#FEFEFE"/>
<path d="M145.212 116.27L144.957 115.962L143.979 114.929L143.04 113.95L142.115 112.958L141.592 112.502L139.781 114.312L140.251 114.768L141.176 115.761L142.115 116.74L143.04 117.732L143.348 118.04L145.212 116.27Z" fill="#FEFEFE"/>
<path d="M135.584 110.263L136.107 110.732L137.864 108.814L137.341 108.358L136.415 107.473L135.423 106.588L134.498 105.757L133.975 105.354L132.325 107.312L132.781 107.728L133.72 108.559L134.645 109.391L135.584 110.263Z" fill="#FEFEFE"/>
<path d="M155.779 205.352L155.002 204.736L154.277 204.159L153.553 203.542L153.191 203.287L151.582 205.299L151.944 205.567L152.668 206.184L153.406 206.761L154.13 207.377L154.854 207.994L155.525 208.571L157.228 206.6L156.503 206.023L155.779 205.352Z" fill="#FEFEFE"/>
<path d="M147.6 199.197L146.876 198.674L146.151 198.205L145.427 197.749L144.65 197.333L144.596 197.226L143.255 199.452L143.295 199.506L144.019 199.975L144.757 200.391L145.427 200.847L146.151 201.316L146.876 201.839L147.492 202.255L148.994 200.123L148.324 199.707L147.6 199.197Z" fill="#FEFEFE"/>
<path d="M151.583 123.418L150.604 122.278L149.665 121.192L148.74 120.105L146.769 121.822V121.876L147.761 122.908L148.686 123.994L149.625 125.081L150.134 125.751L152.106 124.048L151.583 123.418Z" fill="#FEFEFE"/>
<path d="M102.234 205.514L101.711 206.345L101.242 207.163L100.786 208.048L100.316 208.933L100.062 209.443L102.328 210.636L102.596 210.127L103.065 209.295L103.521 208.464L103.991 207.632L104.406 206.855L104.822 206.184L102.65 204.843L102.234 205.514Z" fill="#FEFEFE"/>
<path d="M109.113 196.971L108.55 197.481L107.973 198.057L107.41 198.621L106.887 199.197L106.324 199.814L105.801 200.431L105.747 200.538L107.772 202.147L107.826 202.094L108.295 201.477L108.805 200.954L109.328 200.391L109.797 199.868L110.306 199.345L110.829 198.889L111.192 198.567L109.475 196.649L109.113 196.971Z" fill="#FEFEFE"/>
<path d="M128.799 101.103L127.82 100.379L126.881 99.6552L125.956 98.9847L125.741 98.8774L124.239 100.996L124.454 101.103L125.379 101.774L126.318 102.444L127.189 103.115L128.128 103.853L128.329 104.054L129.938 101.989L129.737 101.828L128.799 101.103Z" fill="#FEFEFE"/>
<path d="M157.228 130.31L156.303 129.117L155.418 128.084L153.446 129.693L154.278 130.78L155.216 131.919L156.142 133.113L156.665 133.73L158.676 132.121L158.167 131.504L157.228 130.31Z" fill="#FEFEFE"/>
<path d="M110.776 91.0058L109.837 90.6974L108.912 90.4292L107.933 90.1744L106.994 89.9196L106.632 89.866L106.109 92.4004L106.431 92.4541L107.303 92.6552L108.188 92.9234L109.073 93.1782L109.945 93.4867L110.83 93.7951H110.883L111.809 91.3679H111.715L110.776 91.0058Z" fill="#FEFEFE"/>
<path d="M120.256 95.3507L119.318 94.8412L118.339 94.3182L117.4 93.7952L116.676 93.4331L115.536 95.7664L116.22 96.1285L117.145 96.5979L118.03 97.1208L118.956 97.5768L119.894 98.1534L119.988 98.2071L121.343 95.981L121.182 95.9274L120.256 95.3507Z" fill="#FEFEFE"/>
<path d="M118.848 191.473L118.232 191.688L117.615 191.889L116.944 192.103L116.314 192.358L115.697 192.613L115.08 192.881L114.45 193.19L113.94 193.498L115.174 195.724L115.643 195.509L116.166 195.255L116.73 195L117.306 194.745L117.87 194.531L118.446 194.329L118.956 194.115L119.532 193.967H119.68L119.009 191.419L118.848 191.473Z" fill="#FEFEFE"/>
<path d="M128.96 191.058L128.276 190.964L127.605 190.856L126.881 190.803L126.211 190.749L125.54 190.696H124.856H124.454L124.494 193.284H124.856H125.487L126.05 193.337L126.68 193.391L127.297 193.445L127.914 193.498L128.598 193.606L129.215 193.699L129.376 193.753L129.832 191.219L129.684 191.165L128.96 191.058Z" fill="#FEFEFE"/>
<path d="M164.067 212.862L163.289 212.138L162.565 211.414L161.788 210.743L161.117 210.126L159.36 211.99L160.031 212.607L160.755 213.331L161.533 214.002L162.257 214.726L162.981 215.45L163.088 215.557L164.899 213.694L164.791 213.64L164.067 212.862Z" fill="#FEFEFE"/>
<path d="M191.209 244.148L190.485 243.169L189.761 242.23L188.983 241.251L188.876 241.09L186.811 242.699L186.958 242.847L187.682 243.839L188.406 244.764L189.184 245.757L189.908 246.682L189.962 246.789L192.04 245.234L191.987 245.126L191.209 244.148Z" fill="#FEFEFE"/>
<path d="M97.6208 214.78L97.2051 215.812L96.7894 216.912L96.3737 218.038L95.958 219.138L98.3986 220.009L98.8143 218.923L99.1764 217.837L99.5921 216.804L100.008 215.772L100.209 215.249L97.822 214.27L97.6208 214.78Z" fill="#FEFEFE"/>
<path d="M197.417 191.058L196.546 189.556L195.862 188.416L193.636 189.717L194.32 190.856L195.138 192.358L196.023 193.86L196.224 194.222L198.463 192.922L198.249 192.559L197.417 191.058Z" fill="#FEFEFE"/>
<path d="M202.915 259.998L202.191 258.966L201.467 257.973L201.306 257.719L199.188 259.274L199.389 259.475L200.059 260.468L200.783 261.5L201.507 262.479L202.191 263.471L204.31 261.969L203.64 260.977L202.915 259.998Z" fill="#FEFEFE"/>
<path d="M200.328 201.37L201.146 202.872L201.361 203.18L203.64 201.893L203.426 201.571L202.554 200.069L201.723 198.567L201.052 197.387L198.826 198.674L199.497 199.868L200.328 201.37Z" fill="#FEFEFE"/>
<path d="M184.477 235.605L183.753 234.667L182.975 233.795L182.345 233.017L180.387 234.667L181.004 235.391L181.728 236.33L182.505 237.255L183.23 238.194L183.592 238.663L185.617 237.054L185.255 236.531L184.477 235.605Z" fill="#FEFEFE"/>
<path d="M197.11 251.966L196.386 250.987L195.661 249.994L195.138 249.377L193.073 250.933L193.583 251.55L194.32 252.542L195.045 253.521L195.769 254.5L196.184 255.077L198.249 253.521L197.834 252.998L197.11 251.966Z" fill="#FEFEFE"/>
<path d="M168.21 149.527L168.827 150.412L170.959 148.91L170.329 148.025L169.404 146.724L168.465 145.383L167.956 144.659L165.877 146.161L166.346 146.885L167.285 148.186L168.21 149.527Z" fill="#FEFEFE"/>
<path d="M170.853 219.862L170.129 219.084L169.351 218.253L168.627 217.475L168.573 217.422L166.709 219.232H166.763L167.487 220.063L168.211 220.841L168.989 221.619L169.713 222.45L170.236 222.96L172.1 221.203L171.63 220.68L170.853 219.862Z" fill="#FEFEFE"/>
<path d="M182.304 166.048L181.366 164.653L180.44 163.205L179.609 161.904L177.437 163.299L178.255 164.6L179.193 166.048L180.065 167.443L180.226 167.657L182.398 166.249L182.304 166.048Z" fill="#FEFEFE"/>
<path d="M163.812 138.906L162.873 137.672L161.948 136.425L161.841 136.264L159.775 137.82L159.869 137.981L160.808 139.215L161.733 140.462L162.672 141.709L162.819 141.964L164.952 140.462L164.737 140.207L163.812 138.906Z" fill="#FEFEFE"/>
<path d="M177.692 227.466L176.968 226.594L176.19 225.763L175.613 225.092L173.655 226.795L174.218 227.466L174.996 228.297L175.72 229.182L176.498 230.054L177.061 230.684L179.033 229.021L178.469 228.351L177.692 227.466Z" fill="#FEFEFE"/>
<path d="M174.58 158.954L176.753 157.559L175.881 156.205L174.942 154.81L174.057 153.456L173.856 153.201L171.737 154.649L171.885 154.918L172.824 156.259L173.695 157.653L174.58 158.954Z" fill="#FEFEFE"/>
<path d="M238.653 194.169L241.08 193.337L239.417 188.416L236.99 189.247L238.653 194.169Z" fill="#FEFEFE"/>
<path d="M420.17 148.186L420.747 146.831L421.256 145.544L421.833 144.243L422.034 143.72L419.661 142.688L419.446 143.264L418.883 144.552L418.306 145.852L417.783 147.193L417.636 147.502L420.063 148.494L420.17 148.186Z" fill="#FEFEFE"/>
<path d="M241.912 203.958L244.393 203.127L242.743 198.259L240.303 199.09L241.912 203.958Z" fill="#FEFEFE"/>
<path d="M416.443 157.559L416.966 156.205L417.475 154.864L418.052 153.51L418.105 153.255L415.718 152.316L415.611 152.531L415.102 153.872L414.525 155.226L414.015 156.621L413.801 157.144L416.241 158.069L416.443 157.559Z" fill="#FEFEFE"/>
<path d="M206.228 211.883L206.429 212.192L208.655 210.944L208.508 210.582L207.623 209.08L206.791 207.579L206.174 206.439L203.895 207.686L204.565 208.879L205.396 210.381L206.228 211.883Z" fill="#FEFEFE"/>
<path d="M229.495 158.994L227.058 159.824L228.713 164.686L231.15 163.856L229.495 158.994Z" fill="#FEFEFE"/>
<path d="M236.122 178.628L233.685 179.458L235.344 184.333L237.782 183.503L236.122 178.628Z" fill="#FEFEFE"/>
<path d="M94.0003 225.186L93.6382 226.487L93.2761 227.828L92.9141 229.182L95.4485 229.799L95.757 228.512L96.119 227.211L96.4811 225.923L96.7895 224.877L94.3087 224.153L94.0003 225.186Z" fill="#FEFEFE"/>
<path d="M438.046 110.732L438.609 109.753L439.186 108.814L439.749 107.835L440.312 106.897L440.366 106.856L438.193 105.448L438.14 105.556L437.577 106.494L436.946 107.473L436.383 108.452L435.806 109.444L435.498 109.954L437.778 111.255L438.046 110.732Z" fill="#FEFEFE"/>
<path d="M456.995 86.9695L457.571 86.5941L458.134 86.1918L458.711 85.8297L459.274 85.4676L459.838 85.1458L460.361 84.8374L460.669 84.6899L459.529 82.4102L459.167 82.5577L458.55 82.8661L457.933 83.2282L457.303 83.6439L456.686 84.0059L456.069 84.4753L455.493 84.891L454.97 85.2531L456.525 87.3718L456.995 86.9695Z" fill="#FEFEFE"/>
<path d="M449.539 94.0633L450.102 93.433L450.732 92.7625L451.295 92.1457L451.872 91.5154L452.435 90.9522L452.744 90.6438L450.933 88.7798L450.571 89.1419L450.008 89.7587L449.378 90.3756L448.815 91.0058L448.198 91.6763L447.567 92.4005L447.366 92.6553L449.284 94.3717L449.539 94.0633Z" fill="#FEFEFE"/>
<path d="M428.457 129.331L428.98 128.138L429.544 126.944L430.12 125.805L430.536 124.92L428.203 123.74L427.787 124.665L427.21 125.858L426.647 126.998L426.07 128.192L425.977 128.446L428.296 129.533L428.457 129.331Z" fill="#FEFEFE"/>
<path d="M488.588 101.104L489.152 102.136L489.728 103.222L489.983 103.799L492.316 102.659L492.062 102.029L491.431 100.943L490.868 99.8564L490.291 98.7702L489.835 97.9924L487.609 99.2932L488.012 100.071L488.588 101.104Z" fill="#FEFEFE"/>
<path d="M226.731 244.402L225.954 243.008L225.9 242.9L223.634 244.094L223.674 244.201L224.452 245.649L225.176 247.044L225.954 248.452L226.061 248.653L228.341 247.46L228.233 247.259L227.456 245.851L226.731 244.402Z" fill="#FEFEFE"/>
<path d="M443.222 102.444L443.785 101.613L444.362 100.795L444.925 99.9636L445.502 99.1858L446.065 98.408L446.119 98.3544L444.054 96.7988L444 96.8525L443.423 97.6302L442.86 98.4617L442.23 99.2931L441.667 100.165L441.05 100.996V101.05L443.169 102.498L443.222 102.444Z" fill="#FEFEFE"/>
<path d="M232.016 174.536L234.456 173.718L232.793 168.797L230.366 169.615L232.016 174.536Z" fill="#FEFEFE"/>
<path d="M72.7586 101.935L71.9272 102.807L71.1092 103.799L70.2778 104.778L69.5 105.717L71.5249 107.312L72.2893 106.387L73.067 105.448L73.8985 104.523L74.6762 103.692L74.8372 103.491L72.9732 101.72L72.7586 101.935Z" fill="#FEFEFE"/>
<path d="M56.2371 128.446L55.4593 130.109L54.7352 131.759L54.2256 133.059L56.5991 134.092L57.1221 132.791L57.8463 131.142L58.5704 129.479L58.6241 129.385L56.2907 128.285L56.2371 128.446Z" fill="#FEFEFE"/>
<path d="M60.7427 119.234L59.9649 120.682L59.2407 122.13L58.5166 123.579L60.8499 124.718L61.5204 123.324L62.2982 121.875L63.0223 120.467L63.1833 120.159L60.9036 118.912L60.7427 119.234Z" fill="#FEFEFE"/>
<path d="M66.2413 110.169L65.4635 111.362L64.6321 112.596L63.8543 113.843L63.5459 114.406L65.772 115.707L66.0804 115.184L66.8582 114.004L67.5823 112.81L68.3601 111.671L68.521 111.456L66.3888 109.954L66.2413 110.169Z" fill="#FEFEFE"/>
<path d="M80.4292 95.0958L79.5978 95.7663L78.7127 96.3831L77.8411 97.1207L77.0097 97.8448L76.7549 98.046L78.4579 99.9636L78.6725 99.749L79.4905 99.0785L80.3219 98.4617L81.0997 97.8448L81.9311 97.2146L82.4407 96.9061L80.9388 94.7874L80.4292 95.0958Z" fill="#FEFEFE"/>
<path d="M90.2721 90.2816L89.3334 90.5364L88.4484 90.8985L87.5767 91.2069L86.638 91.6226L85.7664 92.0383L85.6055 92.0919L86.799 94.4253L86.8526 94.3716L87.684 93.9559L88.502 93.6475L89.3334 93.3391L90.1649 93.0172L90.9963 92.7624L91.412 92.6552L90.6342 90.1743L90.2721 90.2816Z" fill="#FEFEFE"/>
<path d="M221.395 234.358L221.033 233.741L218.753 234.935L219.115 235.605L219.893 237.054L220.63 238.502L221.194 239.535L223.473 238.301L222.95 237.255L222.172 235.807L221.395 234.358Z" fill="#FEFEFE"/>
<path d="M51.839 138.96L51.1148 140.877L50.4443 142.795L52.8715 143.68L53.542 141.762L54.2662 139.899L54.6819 138.853L52.2547 137.927L51.839 138.96Z" fill="#FEFEFE"/>
<path d="M222.079 145.075L224.56 144.243L222.897 139.375L220.416 140.207L222.079 145.075Z" fill="#FEFEFE"/>
<path d="M221.247 134.454L219.584 129.533L217.104 130.364L218.753 135.286L221.247 134.454Z" fill="#FEFEFE"/>
<path d="M225.39 154.918L227.818 154.086L226.168 149.165L223.728 149.996L225.39 154.918Z" fill="#FEFEFE"/>
<path d="M96.8967 91.6764L97.7818 91.6227L98.5998 91.5691H99.4848H100.316L101.201 91.6227L101.295 89.0346L100.424 88.981H99.4848H98.5595L97.6208 89.0346L96.6956 89.0882L95.958 89.1419L96.2262 91.73L96.8967 91.6764Z" fill="#FEFEFE"/>
<path d="M189.908 183.454L190.793 184.902L190.994 185.264L193.22 183.964L193.019 183.602L192.134 182.1L191.263 180.651L190.579 179.511L188.353 180.852L189.036 181.952L189.908 183.454Z" fill="#FEFEFE"/>
<path d="M187.682 174.751L186.81 173.303L185.871 171.841L185.147 170.661L182.975 172.002L183.699 173.195L184.57 174.644L185.455 176.092L185.67 176.4L187.896 175.059L187.682 174.751Z" fill="#FEFEFE"/>
<path d="M435.605 338.353L436.128 340.887L441.197 339.801L440.634 337.266L435.605 338.353Z" fill="#FEFEFE"/>
<path d="M446.427 274.494L442.136 277.391L443.584 279.577L447.875 276.627L446.427 274.494Z" fill="#FEFEFE"/>
<path d="M437.885 280.354L433.58 283.251L435.042 285.423L439.333 282.473L437.885 280.354Z" fill="#FEFEFE"/>
<path d="M455.854 334.061L456.377 336.596L461.446 335.51L460.937 332.962L455.854 334.061Z" fill="#FEFEFE"/>
<path d="M445.703 336.18L446.28 338.715L451.295 337.628L450.786 335.147L445.703 336.18Z" fill="#FEFEFE"/>
<path d="M409.147 300.027V302.561L409.456 302.977L413.693 300.027L412.245 297.908L409.147 300.027Z" fill="#FEFEFE"/>
<path d="M454.969 268.647L450.678 271.544L452.126 273.663L456.431 270.766L454.969 268.647Z" fill="#FEFEFE"/>
<path d="M430.791 288.32L429.343 286.201L425.038 289.151L426.486 291.27L430.791 288.32Z" fill="#FEFEFE"/>
<path d="M415.303 342.657L415.879 345.192L420.895 344.106L420.385 341.571L415.303 342.657Z" fill="#FEFEFE"/>
<path d="M425.454 340.471L425.977 343.019L431.046 341.933L430.536 339.439L425.454 340.471Z" fill="#FEFEFE"/>
<path d="M416.496 295.011L417.998 297.13L422.249 294.18L420.787 292.048L416.496 295.011Z" fill="#FEFEFE"/>
<path d="M411.883 162.105L411.373 163.513L410.85 164.908L410.273 166.303L410.126 166.826L412.553 167.751L412.714 167.188L413.237 165.793L413.8 164.439L414.323 163.044L414.377 162.883L411.936 161.958L411.883 162.105Z" fill="#FEFEFE"/>
<path d="M425.668 135.393L426.178 134.253L423.791 133.167L423.281 134.293L422.758 135.54L422.195 136.841L421.726 137.927L424.059 138.96L424.568 137.874L425.091 136.627L425.668 135.393Z" fill="#FEFEFE"/>
<path d="M459.221 265.697L460.669 267.816L462.225 266.784L460.776 264.611L459.221 265.697Z" fill="#FEFEFE"/>
<path d="M434.626 116.9L435.189 115.868L435.243 115.761L432.963 114.513L432.91 114.621L432.346 115.653L431.77 116.739L431.207 117.879L430.63 118.966L430.536 119.126L432.856 120.32L432.91 120.159L433.486 119.073L434.05 117.987L434.626 116.9Z" fill="#FEFEFE"/>
<path d="M526.753 318.989L527.33 321.523L532.399 320.491L531.835 317.943L526.753 318.989Z" fill="#FEFEFE"/>
<path d="M516.655 321.161L517.178 323.695L522.247 322.609L521.738 320.075L516.655 321.161Z" fill="#FEFEFE"/>
<path d="M511.569 322.271L506.497 323.306L507.014 325.841L512.086 324.807L511.569 322.271Z" fill="#FEFEFE"/>
<path d="M562.236 311.479L557.153 312.565L557.73 315.1L562.799 314.013L562.236 311.479Z" fill="#FEFEFE"/>
<path d="M496.353 325.452L496.929 328L501.998 326.914L501.435 324.366L496.353 325.452Z" fill="#FEFEFE"/>
<path d="M536.904 316.856L537.427 319.404L542.496 318.305L541.987 315.77L536.904 316.856Z" fill="#FEFEFE"/>
<path d="M547.056 314.738L547.579 317.218L552.648 316.186L552.138 313.651L547.056 314.738Z" fill="#FEFEFE"/>
<path d="M496.044 110.786L495.481 109.445L494.904 108.09L494.596 107.366L492.209 108.399L492.571 109.176L493.094 110.477L493.657 111.764L494.234 113.119L496.621 112.14L496.044 110.786Z" fill="#FEFEFE"/>
<path d="M476.774 86.0843L477.297 86.5001L477.874 86.9694L478.383 87.3717L480.1 85.4675L479.523 84.9445L478.906 84.4751L478.276 84.0058L477.659 83.5499L477.042 83.1342L476.412 82.7721L475.795 82.41L475.634 82.3027L474.4 84.5824L474.548 84.6897L475.125 84.9981L475.634 85.3066L476.211 85.7223L476.774 86.0843Z" fill="#FEFEFE"/>
<path d="M476.104 329.757L476.627 332.291L481.695 331.205L481.186 328.67L476.104 329.757Z" fill="#FEFEFE"/>
<path d="M465.952 331.876L466.529 334.423L471.598 333.377L471.034 330.843L465.952 331.876Z" fill="#FEFEFE"/>
<path d="M486.778 93.1246L486.148 92.2395L485.584 91.4751L484.968 90.6974L484.391 89.9196L483.868 89.2893L481.856 90.9521L482.379 91.569L482.943 92.2931L483.506 93.0173L484.082 93.7951L484.646 94.5728L484.914 94.9885L487.033 93.5403L486.778 93.1246Z" fill="#FEFEFE"/>
<path d="M466.985 82.9196L467.508 82.866H468.084L468.594 82.9196H469.117L469.68 83.0269H469.895L470.364 80.4924L470.042 80.4388L469.372 80.3851L468.755 80.3315L468.125 80.2778H467.454L466.837 80.3315L466.167 80.3851L465.537 80.4388L464.866 80.546L464.759 80.5863L465.228 83.1342L465.335 83.0805L465.899 83.0269L466.422 82.9196H466.985Z" fill="#FEFEFE"/>
<path d="M491.337 326.537L486.266 327.572L486.783 330.108L491.855 329.072L491.337 326.537Z" fill="#FEFEFE"/>
<path d="M231.868 254.192L231.144 252.797L230.768 252.019L228.448 253.266L228.864 253.991L229.588 255.385L230.312 256.726L230.875 257.826L233.155 256.632L232.592 255.546L231.868 254.192Z" fill="#FEFEFE"/>
<path d="M242.166 273.663L241.496 272.429L240.879 271.182L240.41 270.351L238.13 271.598L238.599 272.376L239.216 273.623L239.887 274.856L240.517 276.103L240.557 276.157L242.837 274.91L242.783 274.856L242.166 273.663Z" fill="#FEFEFE"/>
<path d="M237.768 312.619L237.245 311.788L236.735 310.956L236.212 310.125L235.796 309.508L233.624 310.902L233.986 311.479L234.549 312.351L235.072 313.182L235.595 314.014L236.105 314.845L236.373 315.261L238.599 313.853L238.331 313.437L237.768 312.619Z" fill="#FEFEFE"/>
<path d="M234.51 264.759L235.234 266.059L235.69 266.985L238.023 265.791L237.514 264.812L236.83 263.512L236.106 262.224L235.596 261.192L233.316 262.425L233.826 263.418L234.51 264.759Z" fill="#FEFEFE"/>
<path d="M246.056 208.048L243.562 208.879L245.224 213.801L247.705 212.969L246.056 208.048Z" fill="#FEFEFE"/>
<path d="M252.68 227.68L250.199 228.512L251.849 233.433L254.343 232.602L252.68 227.68Z" fill="#FEFEFE"/>
<path d="M209.285 269.063L208.561 268.017L207.877 267.038L207.314 266.207L205.142 267.655L205.758 268.487L206.429 269.519L207.099 270.512L207.837 271.544L208.092 271.96L210.211 270.458L209.956 270.042L209.285 269.063Z" fill="#FEFEFE"/>
<path d="M249.368 217.891L246.887 218.722L248.536 223.59L251.03 222.759L249.368 217.891Z" fill="#FEFEFE"/>
<path d="M232.27 303.969L231.707 303.084L231.143 302.159L230.567 301.274L230.258 300.751L228.032 302.159L228.394 302.669L228.958 303.554L229.534 304.479L230.097 305.364L230.674 306.249L230.822 306.504L233.007 305.109L232.846 304.841L232.27 303.969Z" fill="#FEFEFE"/>
<path d="M218.243 228.511L217.465 227.01L216.634 225.548L216.124 224.623L213.845 225.816L214.354 226.795L215.186 228.243L215.964 229.692L216.326 230.375L218.605 229.182L218.243 228.511Z" fill="#FEFEFE"/>
<path d="M214.716 277.082L214.046 276.103L213.375 275.125L213.161 274.749L211.042 276.211L211.243 276.573L211.927 277.552L212.598 278.531L213.268 279.523L213.885 280.502L216.071 279.054L215.387 278.128L214.716 277.082Z" fill="#FEFEFE"/>
<path d="M211.404 221.31L213.683 220.063L213.429 219.594L212.597 218.092L211.766 216.59L211.203 215.504L208.923 216.751L209.54 217.837L210.318 219.339L211.149 220.841L211.404 221.31Z" fill="#FEFEFE"/>
<path d="M255.944 237.497L253.507 238.327L255.162 243.189L257.599 242.359L255.944 237.497Z" fill="#FEFEFE"/>
<path d="M220.67 286.04L220.054 285.061L219.383 284.083L218.914 283.358L216.795 284.807L217.211 285.477L217.881 286.456L218.498 287.448L219.168 288.427L219.638 289.152L221.757 287.703L221.354 287.033L220.67 286.04Z" fill="#FEFEFE"/>
<path d="M226.37 294.743L225.753 293.764L225.136 292.826L224.613 292.048L222.44 293.456L222.95 294.234L223.58 295.159L224.197 296.151L224.76 297.077L225.23 297.801L227.402 296.406L226.946 295.682L226.37 294.743Z" fill="#FEFEFE"/>
<path d="M391.218 221.981L390.749 223.429L390.346 224.824L390.024 225.709L392.519 226.487L392.773 225.602L393.243 224.207L393.712 222.812L394.074 221.565L391.634 220.787L391.218 221.981Z" fill="#FEFEFE"/>
<path d="M394.437 212.084L393.967 213.533L393.498 214.941L393.189 215.812L395.67 216.644L395.992 215.772L396.394 214.31L396.864 212.916L397.279 211.722L394.799 210.904L394.437 212.084Z" fill="#FEFEFE"/>
<path d="M410.126 174.228L410.649 172.833L410.743 172.579L408.316 171.694L408.209 171.948L407.686 173.343L407.176 174.751L406.653 176.199L406.546 176.561L408.987 177.446L409.094 177.084L409.603 175.623L410.126 174.228Z" fill="#FEFEFE"/>
<path d="M397.749 202.04L397.28 203.488L396.757 204.937L396.448 205.983L398.889 206.801L399.251 205.768L399.72 204.32L400.176 202.872L400.538 201.893L398.057 201.061L397.749 202.04Z" fill="#FEFEFE"/>
<path d="M388.107 231.717L387.705 233.111L387.235 234.466L386.927 235.605L389.354 236.383L389.716 235.243L390.132 233.889L390.601 232.494L390.91 231.408L388.482 230.63L388.107 231.717Z" fill="#FEFEFE"/>
<path d="M404.641 181.899L404.118 183.347L403.649 184.795L403.14 186.19L403.086 186.351L405.513 187.182L405.567 187.075L406.09 185.627L406.599 184.232L407.069 182.77L407.23 182.314L404.789 181.429L404.641 181.899Z" fill="#FEFEFE"/>
<path d="M401.168 191.996L400.645 193.391L400.176 194.839L399.72 196.14L402.147 196.971L402.616 195.67L403.086 194.276L403.595 192.828L403.863 192.103L401.369 191.272L401.168 191.996Z" fill="#FEFEFE"/>
<path d="M378.787 261.446L378.372 262.64L378.009 263.833L377.647 264.973L377.594 265.228L380.034 266.006L380.142 265.738L380.504 264.611L380.866 263.418L381.228 262.224L381.59 261.084L379.149 260.307L378.787 261.446Z" fill="#FEFEFE"/>
<path d="M263.448 267.763L265.111 272.684L267.552 271.853L265.889 266.931L263.448 267.763Z" fill="#FEFEFE"/>
<path d="M375.837 270.659L375.475 271.745L375.167 272.845L374.804 273.931L374.442 275.017V275.071L376.87 275.889L376.923 275.795L377.285 274.709L377.594 273.663L377.969 272.577L378.331 271.437L378.479 270.927L375.998 270.149L375.837 270.659Z" fill="#FEFEFE"/>
<path d="M262.576 257.142L260.136 257.973L261.799 262.895L264.226 262.063L262.576 257.142Z" fill="#FEFEFE"/>
<path d="M381.899 251.604L381.483 252.851L381.067 254.084L380.705 255.332L383.146 256.109L383.561 254.862L383.977 253.629L384.339 252.381L384.701 251.188L382.261 250.41L381.899 251.604Z" fill="#FEFEFE"/>
<path d="M385.156 241.197L384.7 242.485L384.285 243.839L383.923 245.126L383.815 245.448L386.243 246.213L386.35 245.904L386.766 244.617L387.181 243.262L387.597 241.975L387.798 241.305L385.371 240.527L385.156 241.197Z" fill="#FEFEFE"/>
<path d="M259.265 247.312L256.824 248.13L258.487 253.052L260.914 252.22L259.265 247.312Z" fill="#FEFEFE"/>
<path fill-rule="evenodd" clip-rule="evenodd" d="M396.756 125.604C402.04 125.604 406.331 129.908 406.331 135.178C406.331 140.462 402.026 144.753 396.756 144.753C391.473 144.753 387.182 140.448 387.182 135.178C387.182 129.895 391.486 125.604 396.756 125.604Z" fill="#FEFEFE"/>
<path fill-rule="evenodd" clip-rule="evenodd" d="M550.368 203.851C554.404 203.851 557.676 207.109 557.676 211.159C557.676 215.209 554.418 218.467 550.368 218.467C546.318 218.467 543.06 215.209 543.06 211.159C543.06 207.109 546.332 203.851 550.368 203.851Z" fill="#FEFEFE"/>
<path fill-rule="evenodd" clip-rule="evenodd" d="M395.577 62C402.416 62 407.954 67.5383 407.954 74.3774C407.954 81.2165 402.416 86.7012 395.577 86.7012C388.738 86.7012 383.199 81.2165 383.199 74.3774C383.199 67.5383 388.738 62 395.577 62Z" fill="#6DBCC1"/>
<path fill-rule="evenodd" clip-rule="evenodd" d="M595.841 84.3276C599.824 84.3276 603.042 87.5326 603.042 91.5288C603.042 95.5115 599.837 98.7299 595.841 98.7299C591.845 98.7299 588.64 95.525 588.64 91.5288C588.653 87.5326 591.858 84.3276 595.841 84.3276Z" fill="#6DBCC1"/>
<path fill-rule="evenodd" clip-rule="evenodd" d="M606.824 217.891C613.033 217.891 618.116 222.96 618.116 229.236C618.116 235.445 613.047 240.527 606.824 240.527C600.562 240.527 595.479 235.458 595.479 229.236C595.479 222.96 600.562 217.891 606.824 217.891Z" fill="#6DBCC1"/>
<path fill-rule="evenodd" clip-rule="evenodd" d="M91.2515 339.184C99.5389 339.184 106.324 345.916 106.324 354.257C106.324 362.598 99.5389 369.329 91.2515 369.329C82.9105 369.329 76.1787 362.598 76.1787 354.257C76.1787 345.916 82.9105 339.184 91.2515 339.184Z" fill="#6DBCC1"/>
<path fill-rule="evenodd" clip-rule="evenodd" d="M17.9117 211.052C22.2565 211.052 25.7833 214.579 25.7833 218.923C25.7833 223.268 22.2565 226.795 17.9117 226.795C13.5669 226.795 10.04 223.268 10.04 218.923C10.04 214.579 13.5669 211.052 17.9117 211.052Z" fill="#6DBCC1"/>
<path fill-rule="evenodd" clip-rule="evenodd" d="M40.5482 75.0479C46.6095 75.0479 51.4773 79.9693 51.4773 86.0306C51.4773 92.0919 46.6095 96.9597 40.5482 96.9597C34.4869 96.9597 29.5654 92.0919 29.5654 86.0306C29.5654 79.9693 34.4869 75.0479 40.5482 75.0479Z" fill="#6DBCC1"/>
<path fill-rule="evenodd" clip-rule="evenodd" d="M130.301 72.6743C134.243 72.6743 137.502 75.8793 137.502 79.8755C137.502 83.818 134.243 87.023 130.301 87.023C126.318 87.023 123.1 83.818 123.1 79.8755C123.1 75.8793 126.318 72.6743 130.301 72.6743Z" fill="#6DBCC1"/>
<path fill-rule="evenodd" clip-rule="evenodd" d="M303.96 99.387C306.964 99.387 309.405 101.828 309.405 104.831C309.405 107.889 306.964 110.316 303.96 110.316C300.956 110.316 298.516 107.875 298.516 104.831C298.516 101.828 300.956 99.387 303.96 99.387Z" fill="#6DBCC1"/>
<path fill-rule="evenodd" clip-rule="evenodd" d="M506.772 357.515C511.586 357.515 515.529 361.404 515.529 366.218C515.529 371.086 511.586 374.975 506.772 374.975C501.958 374.975 498.016 371.086 498.016 366.218C498.016 361.404 501.945 357.515 506.772 357.515Z" fill="#6DBCC1"/>
</g>
<defs>
<clipPath id="clip0">
<rect width="644.992" height="350" fill="white" transform="translate(3 62)"/>
</clipPath>
</defs>
</svg>
